<?xml version="1.0" encoding="UTF-8"?>
<svg width="865px" height="208px" viewBox="0 0 865 208" version="1.1" xmlns="http://www.w3.org/2000/svg" xmlns:xlink="http://www.w3.org/1999/xlink">
    <!-- Generator: Sketch 57 (83077) - https://sketch.com -->
    <title>mmaggie</title>
    <desc>Created with Sketch.</desc>
    <g id="Page-3" stroke="none" stroke-width="1" fill="none" fill-rule="evenodd">
        <g id="Home" transform="translate(-530.000000, -316.000000)" fill="#FFFCE6" fill-rule="nonzero">
            <path d="M531.913674,404.262725 C536.359606,401.751172 540.805471,399.43285 545.251403,397.307689 L558.589131,390.932239 C559.94224,390.35265 561.8269,389.43498 564.243168,388.179204 C566.659435,386.923427 569.22064,385.715967 571.926859,384.556789 C574.633078,383.39761 577.242607,382.528239 579.755525,381.94865 C582.268443,381.369061 584.298077,381.465658 585.844488,382.238443 C587.584201,383.397622 588.405719,384.749977 588.309068,386.295548 C588.212418,387.841119 587.632522,389.483264 586.569365,391.222032 C585.506207,392.9608 584.298092,394.602945 582.944982,396.148516 C581.591872,397.694088 580.62538,398.949845 580.045476,399.915828 C579.078969,401.461399 578.160801,403.103544 577.290945,404.842312 C576.421089,406.581079 575.502921,408.319821 574.536414,410.058589 C578.982346,406.581053 582.89664,403.538255 586.279414,400.930104 C589.662188,398.321952 592.706639,396.051928 595.412858,394.119964 C598.119078,392.188 600.680282,390.545855 603.09655,389.19348 C605.512817,387.841105 607.977372,386.681944 610.49029,385.715962 C613.389811,384.556783 616.192639,384.508485 618.898858,385.571065 C621.605077,386.633645 622.57157,389.096863 621.798364,392.960791 C621.411761,395.665541 620.735217,398.225355 619.76871,400.64031 C618.802203,403.055266 617.642412,405.421886 616.289302,407.740243 C620.541933,405.22869 624.794499,402.668876 629.047129,400.060724 C633.29976,397.452572 637.648975,394.796161 642.094907,392.091412 C645.767633,389.773055 649.681927,387.358136 653.837907,384.846582 C657.993886,382.335029 662.294777,380.78948 666.740709,380.209891 C669.640229,379.823498 671.959811,380.161587 673.699524,381.224167 C675.439236,382.286748 676.599027,383.735699 677.178931,385.571065 C677.758835,387.406431 677.855484,389.434963 677.468881,391.656722 C677.082279,393.878481 676.309085,395.955311 675.149277,397.887275 C672.636359,401.9444 670.123479,405.759972 667.610561,409.334106 C665.097643,412.90824 662.778061,416.627215 660.651746,420.491143 C663.744568,421.070733 667.368914,420.684346 671.524894,419.331971 C675.680873,417.979596 679.015272,416.723838 681.52819,415.564659 C684.234409,414.598677 686.747289,413.584411 689.066906,412.521831 C691.386522,411.459251 693.802753,410.348388 696.315671,409.189209 C697.088877,408.802817 698.007044,408.223236 699.070202,407.45045 C700.13336,406.677665 701.29315,405.953189 702.549609,405.277001 C703.806068,404.600814 705.014184,404.11783 706.173992,403.828035 C707.3338,403.538241 708.396942,403.586539 709.363449,403.972932 C711.296456,404.938914 711.779709,406.098075 710.813202,407.45045 C709.846695,408.802825 708.348632,410.106881 706.318967,411.362658 C704.289303,412.618435 702.16302,413.729298 699.940054,414.69528 C697.717088,415.661262 696.219025,416.337439 695.445819,416.723832 C692.7396,418.269403 690.033422,419.621758 687.327202,420.780937 L679.208585,424.258455 C675.535859,425.804026 671.476591,427.446171 667.030659,429.184939 C662.584728,430.923707 658.428811,430.923707 654.562783,429.184939 C652.436468,428.218957 651.083379,426.963199 650.503475,425.417628 C649.92357,423.872056 649.778597,422.27821 650.068549,420.63604 C650.358501,418.99387 651.035045,417.303427 652.098203,415.564659 C653.161361,413.825892 654.272827,412.37694 655.432635,411.217762 C656.592443,409.865387 657.993857,408.416435 659.636919,406.870864 C661.279981,405.325293 662.826368,403.683148 664.276129,401.94438 C665.725889,400.205612 666.88568,398.418572 667.755536,396.583206 C668.625392,394.74784 668.867015,392.767606 668.480413,390.642446 C666.547399,389.676464 664.179492,389.77306 661.376623,390.932239 C658.573753,392.091417 656.399145,393.057385 654.852734,393.830171 C649.053693,395.955331 643.448037,398.756637 638.035598,402.234173 C632.62316,405.711709 627.404101,409.189192 622.378265,412.666728 C621.60506,413.246317 620.25197,414.35718 618.318957,415.999349 C616.385943,417.641519 614.356309,419.138769 612.229994,420.491143 C610.103679,421.843518 608.02572,422.712889 605.996056,423.099282 C603.966391,423.485675 602.564977,422.616304 601.791772,420.491143 C601.405169,419.525161 601.501818,418.366 602.081722,417.013625 C602.661627,415.66125 603.43482,414.260597 604.401327,412.811624 C605.367834,411.362651 606.334327,409.961998 607.300833,408.609623 C608.26734,407.257248 608.943885,406.098087 609.330488,405.132105 C609.71709,404.166123 610.248661,402.813768 610.925216,401.075 C611.601771,399.336232 612.133342,397.597491 612.519944,395.858723 C608.074013,397.211098 603.918096,398.998138 600.052068,401.219897 C596.186041,403.441656 592.465045,405.856575 588.88897,408.464726 C585.312894,411.072878 581.785197,413.874184 578.305772,416.868729 C574.826348,419.863273 571.250326,422.712878 567.5776,425.417628 C566.611093,426.38361 565.451302,427.156384 564.098192,427.735973 C562.745083,428.315562 561.391993,428.218966 560.038884,427.44618 C558.299171,426.673394 557.332679,425.755725 557.139378,424.693145 C556.946076,423.630564 557.139375,422.568 557.719279,421.50542 C558.299183,420.442839 559.072377,419.428573 560.038884,418.462591 L562.358489,416.144246 C567.770927,409.189175 572.120143,401.461434 575.406266,392.960791 C571.153636,393.926773 567.046043,395.23083 563.083365,396.872999 C559.120687,398.515169 555.303042,400.109015 551.630316,401.654587 C548.924097,403.006962 546.217918,404.311018 543.511699,405.566795 C540.80548,406.822571 538.099301,408.319821 535.393082,410.058589 C534.426575,410.638178 533.460083,410.783073 532.493576,410.493279 C531.527069,410.203484 530.850524,409.7205 530.463921,409.044313 C530.077319,408.368125 529.932345,407.547053 530.028995,406.581071 C530.125646,405.615089 530.753866,404.842315 531.913674,404.262725 Z M704.724239,404.262725 C709.170171,401.751172 713.616036,399.43285 718.061967,397.307689 L731.399695,390.932239 C732.752805,390.35265 734.637465,389.43498 737.053732,388.179204 C739.469999,386.923427 742.031204,385.715967 744.737423,384.556789 C747.443643,383.39761 750.053172,382.528239 752.56609,381.94865 C755.079008,381.369061 757.108642,381.465658 758.655053,382.238443 C760.394765,383.397622 761.216284,384.749977 761.119633,386.295548 C761.022982,387.841119 760.443087,389.483264 759.379929,391.222032 C758.316772,392.9608 757.108656,394.602945 755.755547,396.148516 C754.402437,397.694088 753.435945,398.949845 752.856041,399.915828 C751.889534,401.461399 750.971366,403.103544 750.10151,404.842312 C749.231654,406.581079 748.313486,408.319821 747.346979,410.058589 C751.792911,406.581053 755.707205,403.538255 759.089979,400.930104 C762.472753,398.321952 765.517204,396.051928 768.223423,394.119964 C770.929642,392.188 773.490847,390.545855 775.907114,389.19348 C778.323381,387.841105 780.787937,386.681944 783.300855,385.715962 C786.200375,384.556783 789.003203,384.508485 791.709422,385.571065 C794.415642,386.633645 795.382134,389.096863 794.608929,392.960791 C794.222326,395.665541 793.545781,398.225355 792.579274,400.64031 C791.612767,403.055266 790.452977,405.421886 789.099867,407.740243 C793.352497,405.22869 797.605064,402.668876 801.857694,400.060724 C806.110324,397.452572 810.45954,394.796161 814.905471,392.091412 C818.578198,389.773055 822.492492,387.358136 826.648471,384.846582 C830.804451,382.335029 835.105342,380.78948 839.551273,380.209891 C842.450794,379.823498 844.770376,380.161587 846.510088,381.224167 C848.2498,382.286748 849.409591,383.735699 849.989495,385.571065 C850.5694,387.406431 850.666049,389.434963 850.279446,391.656722 C849.892843,393.878481 849.119649,395.955311 847.959841,397.887275 C845.446923,401.9444 842.934043,405.759972 840.421125,409.334106 C837.908207,412.90824 835.588626,416.627215 833.462311,420.491143 C836.555133,421.070733 840.179479,420.684346 844.335459,419.331971 C848.491438,417.979596 851.825837,416.723838 854.338755,415.564659 C857.044974,414.598677 859.557854,413.584411 861.877471,412.521831 C864.197087,411.459251 866.613318,410.348388 869.126236,409.189209 C869.899441,408.802817 870.817609,408.223236 871.880767,407.45045 C872.943924,406.677665 874.103715,405.953189 875.360174,405.277001 C876.616633,404.600814 877.824748,404.11783 878.984557,403.828035 C880.144365,403.538241 881.207506,403.586539 882.174013,403.972932 C884.107021,404.938914 884.590273,406.098075 883.623766,407.45045 C882.65726,408.802825 881.159196,410.106881 879.129532,411.362658 C877.099867,412.618435 874.973584,413.729298 872.750618,414.69528 C870.527653,415.661262 869.029589,416.337439 868.256384,416.723832 C865.550165,418.269403 862.843986,419.621758 860.137767,420.780937 L852.01915,424.258455 C848.346424,425.804026 844.287156,427.446171 839.841224,429.184939 C835.395292,430.923707 831.239375,430.923707 827.373348,429.184939 C825.247033,428.218957 823.893943,426.963199 823.314039,425.417628 C822.734135,423.872056 822.589161,422.27821 822.879113,420.63604 C823.169065,418.99387 823.84561,417.303427 824.908768,415.564659 C825.971925,413.825892 827.083391,412.37694 828.2432,411.217762 C829.403008,409.865387 830.804422,408.416435 832.447483,406.870864 C834.090545,405.325293 835.636933,403.683148 837.086693,401.94438 C838.536454,400.205612 839.696244,398.418572 840.566101,396.583206 C841.435957,394.74784 841.67758,392.767606 841.290977,390.642446 C839.357963,389.676464 836.990057,389.77306 834.187187,390.932239 C831.384317,392.091417 829.209709,393.057385 827.663298,393.830171 C821.864257,395.955331 816.258601,398.756637 810.846163,402.234173 C805.433724,405.711709 800.214666,409.189192 795.18883,412.666728 C794.415624,413.246317 793.062535,414.35718 791.129521,415.999349 C789.196508,417.641519 787.166874,419.138769 785.040558,420.491143 C782.914243,421.843518 780.836285,422.712889 778.80662,423.099282 C776.776956,423.485675 775.375542,422.616304 774.602336,420.491143 C774.215734,419.525161 774.312383,418.366 774.892287,417.013625 C775.472191,415.66125 776.245385,414.260597 777.211892,412.811624 C778.178399,411.362651 779.144891,409.961998 780.111398,408.609623 C781.077905,407.257248 781.75445,406.098087 782.141052,405.132105 C782.527655,404.166123 783.059226,402.813768 783.735781,401.075 C784.412335,399.336232 784.943906,397.597491 785.330509,395.858723 C780.884577,397.211098 776.72866,398.998138 772.862633,401.219897 C768.996605,403.441656 765.27561,405.856575 761.699534,408.464726 C758.123459,411.072878 754.595762,413.874184 751.116337,416.868729 C747.636912,419.863273 744.06089,422.712878 740.388164,425.417628 C739.421657,426.38361 738.261866,427.156384 736.908757,427.735973 C735.555647,428.315562 734.202558,428.218966 732.849448,427.44618 C731.109736,426.673394 730.143244,425.755725 729.949942,424.693145 C729.756641,423.630564 729.949939,422.568 730.529843,421.50542 C731.109748,420.442839 731.882941,419.428573 732.849448,418.462591 L735.169053,416.144246 C740.581492,409.189175 744.930707,401.461434 748.216831,392.960791 C743.9642,393.926773 739.856608,395.23083 735.89393,396.872999 C731.931252,398.515169 728.113607,400.109015 724.440881,401.654587 C721.734661,403.006962 719.028483,404.311018 716.322263,405.566795 C713.616044,406.822571 710.909866,408.319821 708.203646,410.058589 C707.237139,410.638178 706.270647,410.783073 705.30414,410.493279 C704.337633,410.203484 703.661089,409.7205 703.274486,409.044313 C702.887883,408.368125 702.742909,407.547053 702.83956,406.581071 C702.936211,405.615089 703.564431,404.842315 704.724239,404.262725 Z M877.824754,404.262725 C880.144371,403.103547 883.092172,401.606297 886.668248,399.770931 C890.244323,397.935565 894.061968,396.148525 898.121297,394.409757 C902.180626,392.670989 906.09492,391.028844 909.864297,389.483273 C913.633674,387.937702 916.774774,386.681944 919.287692,385.715962 C920.640801,385.136372 923.057032,384.267001 926.536457,383.107823 C930.015882,381.948644 933.688553,380.88608 937.55458,379.920098 C941.420608,378.954116 945.044954,378.277939 948.427728,377.891546 C951.810502,377.505153 954.275058,377.794943 955.821469,378.760925 C958.141085,380.886086 958.576007,382.818021 957.126246,384.556789 C955.676486,386.295557 953.888475,387.358121 951.76216,387.744514 L938.714383,389.19348 C936.008163,389.966265 933.736906,390.883935 931.900543,391.946515 C930.06418,393.009095 927.986222,394.313152 925.666605,395.858723 C924.700098,396.631509 923.008737,398.225355 920.592469,400.64031 C918.176202,403.055266 915.808296,405.663378 913.488679,408.464726 C911.169063,411.266075 909.332727,413.970784 907.979618,416.578936 C906.626508,419.187087 906.626508,421.070724 907.979618,422.229903 C909.139426,423.195885 911.024086,423.389078 913.633655,422.809489 C916.243223,422.2299 918.901077,421.360529 921.607297,420.20135 C924.313516,419.042172 926.826396,417.834712 929.146012,416.578936 C931.465629,415.323159 933.012017,414.40549 933.785222,413.8259 C939.390962,410.348365 943.933476,406.677688 947.412901,402.813759 C949.152613,400.881795 951.037273,400.640303 953.066938,402.089276 C955.096602,403.53825 955.724822,405.518483 954.951617,408.030037 C954.565014,409.382412 953.888469,410.541573 952.921963,411.507555 L950.167432,414.26059 C949.297576,415.129974 948.572706,416.337433 947.992802,417.883005 C947.219597,419.23538 947.026298,420.249646 947.412901,420.925833 C947.799504,421.602021 948.476048,422.036706 949.442555,422.229903 C952.148774,422.616295 955.531498,422.423102 959.590827,421.650316 C963.650156,420.877531 967.854397,419.814966 972.203678,418.462591 C976.552959,417.110216 980.85385,415.51637 985.10648,413.681004 C989.359111,411.845638 993.031782,410.155194 996.124604,408.609623 C996.897809,408.416427 997.960951,407.885144 999.31406,407.01576 C1000.66717,406.146377 1002.06858,405.421901 1003.51834,404.842312 C1004.9681,404.262722 1006.36952,403.972932 1007.72263,403.972932 C1009.07574,403.972932 1010.04223,404.552513 1010.62213,405.711691 C1011.39534,406.87087 1011.34702,407.933434 1010.47716,408.899416 C1009.6073,409.865398 1008.39919,410.686471 1006.85278,411.362658 C1005.30637,412.038846 1003.75998,412.666725 1002.21357,413.246314 C1000.66716,413.825903 999.507365,414.308887 998.734159,414.69528 C995.448036,416.240851 992.161962,417.738101 988.875838,419.187074 C985.589715,420.636047 982.206992,422.133297 978.727567,423.678868 C976.407951,424.644851 973.89507,425.804012 971.188851,427.156387 C968.482632,428.508762 965.679804,429.667923 962.780283,430.633905 C959.880763,431.599887 956.932961,432.276064 953.93679,432.662457 C950.940618,433.04885 948.186115,432.75906 945.673197,431.793078 C942.387074,430.440703 940.454089,428.557066 939.874185,426.142111 C939.294281,423.727155 939.39093,421.167341 940.164136,418.462591 L932.335469,423.099282 C929.049346,425.031246 925.618298,427.01148 922.042222,429.040042 C918.466147,431.068605 914.745151,432.276064 910.879124,432.662457 C907.399699,432.855654 904.306924,432.082879 901.600704,430.344112 C898.894485,428.605344 897.444747,425.900635 897.251445,422.229903 C897.251445,420.297938 898.024639,417.834721 899.57105,414.840176 C901.117461,411.845632 903.09877,408.754536 905.515038,405.566795 C907.931305,402.379054 910.589159,399.432852 913.488679,396.728103 C916.3882,394.023353 919.094379,391.994821 921.607297,390.642446 C920.254187,391.028839 918.079579,391.898209 915.083408,393.250584 C912.087236,394.602959 908.704513,396.245104 904.935136,398.177068 C901.16576,400.109033 897.203141,402.089266 893.047161,404.117829 C888.891182,406.146391 885.073537,408.030028 881.594112,409.768796 C880.627605,410.348385 879.661113,410.49328 878.694606,410.203486 C877.728099,409.913691 877.00323,409.430707 876.519976,408.75452 C876.036723,408.078332 875.843424,407.305558 875.940075,406.436174 C876.036726,405.56679 876.664946,404.842315 877.824754,404.262725 Z M1005.69297,404.262725 C1010.71881,401.751172 1015.64792,399.336253 1020.48046,397.017896 C1025.31299,394.699539 1030.2421,392.57441 1035.26794,390.642446 C1040.68037,388.710481 1046.04441,387.26153 1051.3602,386.295548 C1056.67598,385.329566 1062.23331,384.846582 1068.03236,384.846582 C1070.15867,384.846582 1071.80171,385.377864 1072.96152,386.440445 C1074.12132,387.503025 1074.21797,389.290065 1073.25147,391.801618 C1072.09166,393.733583 1070.35197,394.69955 1068.03236,394.69955 C1063.00652,394.313157 1057.93243,394.313157 1052.80995,394.69955 C1047.68746,395.085943 1042.80668,396.245104 1038.16744,398.177068 C1036.62103,398.756658 1034.97799,399.626029 1033.23828,400.785207 C1031.49857,401.944386 1029.90386,403.248442 1028.4541,404.697415 C1027.00434,406.146388 1025.98952,407.740235 1025.40962,409.479003 C1024.82971,411.21777 1025.02301,413.053109 1025.98952,414.985073 C1027.53593,418.269412 1030.48373,420.201347 1034.83301,420.780937 C1039.18229,421.360526 1042.90329,421.263929 1045.99611,420.491143 C1048.50903,419.911554 1050.73196,419.13878 1052.66497,418.172798 L1057.88408,415.564659 C1059.4305,414.791874 1060.83191,414.260592 1062.08837,413.970797 C1063.34483,413.681002 1064.64959,414.115688 1066.0027,415.274866 C1067.35581,417.20683 1067.40414,419.428556 1066.14768,421.940109 C1064.89122,424.451663 1063.8764,426.576792 1063.1032,428.315559 L1059.04389,437.878734 C1064.26302,432.469235 1069.77203,427.301308 1075.57107,422.374799 C1081.37011,417.44829 1087.55566,413.053138 1094.12791,409.189209 C1094.70781,408.802817 1095.48101,408.223236 1096.44752,407.45045 C1097.41402,406.677665 1098.47716,405.953189 1099.63697,405.277001 C1100.79678,404.600814 1101.95657,404.11783 1103.11638,403.828035 C1104.27619,403.538241 1105.24268,403.683136 1106.01589,404.262725 C1107.369,405.228707 1107.85224,406.194675 1107.46564,407.160657 C1107.07904,408.126639 1106.40249,409.092607 1105.43598,410.058589 C1100.41015,412.763339 1095.57769,415.661242 1090.93845,418.752384 C1086.29922,421.843527 1081.75671,425.321011 1077.31078,429.184939 C1072.28494,433.43526 1067.5008,437.975308 1062.95822,442.805219 C1058.41564,447.635129 1054.2114,452.658161 1050.34537,457.874464 L1042.80665,475.262055 C1040.48704,481.057948 1038.16745,486.95035 1035.84784,492.939439 C1033.52822,498.928528 1031.01534,504.820931 1028.30912,510.616823 C1027.72922,511.776002 1027.00435,513.176655 1026.13449,514.818824 C1025.26464,516.460994 1024.29814,518.006542 1023.23499,519.455515 C1022.17183,520.904488 1020.91539,522.06365 1019.46563,522.933033 C1018.01587,523.802417 1016.42116,524.140506 1014.68144,523.94731 C1012.36183,523.560917 1010.86376,522.498352 1010.18721,520.759585 C1009.51065,519.020817 1009.31736,517.088882 1009.60731,514.963721 C1009.89726,512.83856 1010.38051,510.713432 1011.05706,508.588271 C1011.73362,506.46311 1012.36184,504.724369 1012.94174,503.371994 C1016.61447,494.678155 1021.2053,486.225938 1026.71439,478.01509 C1032.22348,469.804242 1038.07076,462.028203 1044.25641,454.686739 L1054.11473,426.5768 C1050.6353,427.542782 1046.91431,428.267258 1042.95163,428.750249 C1038.98895,429.23324 1035.26795,429.281539 1031.78853,428.895146 C1028.3091,428.508753 1025.168,427.542785 1022.36513,425.997214 C1019.56226,424.451643 1017.48431,421.940127 1016.1312,418.462591 C1014.39148,414.019074 1014.48813,409.96201 1016.42115,406.291278 C1014.87474,407.25726 1013.28002,408.271526 1011.63696,409.334106 C1009.9939,410.396686 1008.59249,410.734775 1007.43268,410.348382 C1005.49966,410.348382 1004.33987,409.52731 1003.95327,407.88514 C1003.56667,406.24297 1004.14656,405.035511 1005.69297,404.262725 Z M1101.66663,404.262725 C1106.69246,401.751172 1111.62157,399.336253 1116.45411,397.017896 C1121.28664,394.699539 1126.21575,392.57441 1131.24159,390.642446 C1136.65403,388.710481 1142.01806,387.26153 1147.33385,386.295548 C1152.64964,385.329566 1158.20697,384.846582 1164.00601,384.846582 C1166.13232,384.846582 1167.77536,385.377864 1168.93517,386.440445 C1170.09498,387.503025 1170.19163,389.290065 1169.22512,391.801618 C1168.06531,393.733583 1166.32562,394.69955 1164.00601,394.69955 C1158.98017,394.313157 1153.90609,394.313157 1148.7836,394.69955 C1143.66111,395.085943 1138.78033,396.245104 1134.14109,398.177068 C1132.59468,398.756658 1130.95165,399.626029 1129.21193,400.785207 C1127.47222,401.944386 1125.87751,403.248442 1124.42775,404.697415 C1122.97799,406.146388 1121.96317,407.740235 1121.38327,409.479003 C1120.80336,411.21777 1120.99666,413.053109 1121.96317,414.985073 C1123.50958,418.269412 1126.45738,420.201347 1130.80666,420.780937 C1135.15594,421.360526 1138.87694,421.263929 1141.96976,420.491143 C1144.48268,419.911554 1146.70561,419.13878 1148.63863,418.172798 L1153.85774,415.564659 C1155.40415,414.791874 1156.80556,414.260592 1158.06202,413.970797 C1159.31848,413.681002 1160.62324,414.115688 1161.97635,415.274866 C1163.32946,417.20683 1163.37779,419.428556 1162.12133,421.940109 C1160.86487,424.451663 1159.85005,426.576792 1159.07685,428.315559 L1155.01754,437.878734 C1160.23668,432.469235 1165.74568,427.301308 1171.54472,422.374799 C1177.34377,417.44829 1183.52932,413.053138 1190.10156,409.189209 C1190.68147,408.802817 1191.45466,408.223236 1192.42117,407.45045 C1193.38767,406.677665 1194.45082,405.953189 1195.61062,405.277001 C1196.77043,404.600814 1197.93022,404.11783 1199.09003,403.828035 C1200.24984,403.538241 1201.21633,403.683136 1201.98954,404.262725 C1203.34265,405.228707 1203.82589,406.194675 1203.43929,407.160657 C1203.05269,408.126639 1202.37614,409.092607 1201.40964,410.058589 C1196.3838,412.763339 1191.55134,415.661242 1186.91211,418.752384 C1182.27287,421.843527 1177.73036,425.321011 1173.28443,429.184939 C1168.25859,433.43526 1163.47445,437.975308 1158.93187,442.805219 C1154.38929,447.635129 1150.18505,452.658161 1146.31902,457.874464 L1138.7803,475.262055 C1136.46069,481.057948 1134.14111,486.95035 1131.82149,492.939439 C1129.50187,498.928528 1126.98899,504.820931 1124.28277,510.616823 C1123.70287,511.776002 1122.978,513.176655 1122.10814,514.818824 C1121.23829,516.460994 1120.2718,518.006542 1119.20864,519.455515 C1118.14548,520.904488 1116.88904,522.06365 1115.43928,522.933033 C1113.98952,523.802417 1112.39481,524.140506 1110.6551,523.94731 C1108.33548,523.560917 1106.83742,522.498352 1106.16086,520.759585 C1105.48431,519.020817 1105.29101,517.088882 1105.58096,514.963721 C1105.87091,512.83856 1106.35416,510.713432 1107.03071,508.588271 C1107.70727,506.46311 1108.33549,504.724369 1108.91539,503.371994 C1112.58812,494.678155 1117.17896,486.225938 1122.68805,478.01509 C1128.19713,469.804242 1134.04441,462.028203 1140.23006,454.686739 L1150.08838,426.5768 C1146.60895,427.542782 1142.88796,428.267258 1138.92528,428.750249 C1134.9626,429.23324 1131.24161,429.281539 1127.76218,428.895146 C1124.28276,428.508753 1121.14166,427.542785 1118.33879,425.997214 C1115.53592,424.451643 1113.45796,421.940127 1112.10485,418.462591 C1110.36514,414.019074 1110.46179,409.96201 1112.3948,406.291278 C1110.84839,407.25726 1109.25368,408.271526 1107.61061,409.334106 C1105.96755,410.396686 1104.56614,410.734775 1103.40633,410.348382 C1101.47332,410.348382 1100.31353,409.52731 1099.92692,407.88514 C1099.54032,406.24297 1100.12022,405.035511 1101.66663,404.262725 Z M1226.63534,390.062859 C1227.40855,389.676466 1229.19656,388.903692 1231.99943,387.744514 C1234.8023,386.585335 1237.5568,385.715964 1240.26302,385.136375 C1242.96924,384.556786 1245.28882,384.508488 1247.22183,384.991479 C1249.15485,385.47447 1249.83139,387.26151 1249.25149,390.352653 C1248.86488,392.09142 1248.04337,393.830162 1246.78691,395.56893 C1245.53045,397.307698 1244.61228,399.046439 1244.03238,400.785207 C1242.87257,403.296761 1241.7611,406.387857 1240.69794,410.058589 C1239.63479,413.729321 1239.97306,416.723821 1241.71277,419.042178 C1244.9989,419.42857 1248.62324,419.042183 1252.58592,417.883005 C1256.5486,416.723826 1260.17294,415.564665 1263.45907,414.405487 C1264.42557,414.019094 1266.26191,413.053126 1268.96813,411.507555 C1271.67435,409.961983 1274.5255,408.464734 1277.52167,407.01576 C1280.51784,405.566787 1283.27235,404.504223 1285.78526,403.828035 C1288.29818,403.151848 1289.84457,403.39334 1290.42447,404.552518 C1291.19768,405.904893 1290.71443,407.353845 1288.97472,408.899416 C1287.23501,410.444988 1285.0604,411.845641 1282.45083,413.101417 C1279.84126,414.357194 1277.18341,415.516355 1274.47719,416.578936 C1271.77097,417.641516 1270.03129,418.365992 1269.25808,418.752384 C1265.00545,420.877545 1260.70456,422.954375 1256.35528,424.982938 C1252.006,427.0115 1247.51181,428.412153 1242.87257,429.184939 C1238.81325,429.764528 1236.01042,428.895157 1234.46401,426.5768 C1232.9176,424.258443 1232.1444,421.312242 1232.1444,417.738108 C1232.1444,414.163974 1232.67597,410.300104 1233.73913,406.146381 C1234.80229,401.992658 1235.91375,398.177086 1237.07356,394.69955 C1232.62763,396.438318 1228.27841,398.032165 1224.02578,399.481138 C1219.77315,400.930111 1215.61724,402.620554 1211.55791,404.552518 C1208.07848,406.09809 1204.59911,407.836832 1201.11969,409.768796 C1198.99337,410.348385 1197.30201,409.817103 1196.04555,408.174933 C1194.78909,406.532764 1195.32066,405.132111 1197.64028,403.972932 L1226.63534,390.062859 Z M1260.55956,331.524636 C1261.52607,329.013083 1263.02413,326.839656 1265.0538,325.00429 C1267.08346,323.168924 1269.35472,321.671674 1271.86764,320.512496 C1274.38055,319.353317 1277.03841,318.435648 1279.84128,317.75946 C1282.64415,317.083273 1285.302,316.551991 1287.81492,316.165598 C1294.77377,315.779205 1301.63586,316.068995 1308.40141,317.034977 C1309.56122,317.034977 1310.86599,317.228171 1312.31575,317.614564 C1313.76551,318.000957 1314.39373,319.063521 1314.20042,320.802289 C1314.00712,321.768271 1313.52388,322.589343 1312.75067,323.265531 C1311.97747,323.941718 1311.10762,324.18321 1310.14112,323.990014 C1304.53538,322.830835 1298.6881,322.39615 1292.5991,322.685944 C1286.51011,322.975739 1281.04943,324.762779 1276.21689,328.047118 C1274.28388,329.206297 1272.93079,330.751845 1272.15759,332.683809 C1271.38438,334.615773 1270.22459,336.161322 1268.67818,337.3205 C1266.74516,338.866071 1264.71553,338.866071 1262.58922,337.3205 C1260.4629,335.774929 1259.78636,333.842994 1260.55956,331.524636 Z M1286.36517,403.972932 C1289.84459,402.234164 1293.46894,400.302229 1297.23831,398.177068 C1301.00769,396.051908 1304.82534,394.216569 1308.69136,392.670998 C1311.20428,388.22748 1314.7803,384.605102 1319.41954,381.803754 C1324.05877,379.002406 1328.98788,377.118769 1334.20702,376.152787 C1336.91324,375.766394 1340.05434,375.766394 1343.63041,376.152787 C1347.20649,376.539179 1349.96099,377.988131 1351.894,380.499684 C1353.24711,382.045256 1353.58539,383.687401 1352.90883,385.426168 C1352.23228,387.164936 1351.07249,388.807081 1349.42942,390.352651 C1347.78636,391.898224 1345.95003,393.298877 1343.92036,394.554654 C1341.8907,395.81043 1340.39263,396.7281 1339.42613,397.307689 C1335.9467,399.43285 1332.12906,401.026696 1327.97308,402.089276 C1323.8171,403.151857 1319.61286,403.489945 1315.36023,403.103553 L1314.20042,403.103553 C1314.97363,407.353874 1316.71332,410.638164 1319.41954,412.956521 C1322.12576,415.274878 1325.31518,416.965321 1328.98791,418.027901 C1332.66063,419.090482 1336.47828,419.525167 1340.44096,419.331969 C1344.40363,419.138774 1348.02798,418.752387 1351.3141,418.172798 C1355.95334,417.206816 1360.49585,415.999356 1364.94178,414.550383 C1369.38771,413.10141 1373.73693,411.410967 1377.98956,409.479003 C1379.92257,408.51302 1381.90388,407.595351 1383.93355,406.725967 C1385.96321,405.856583 1387.84787,404.938914 1389.58758,403.972932 C1390.94069,403.586539 1392.34211,403.779733 1393.79187,404.552518 C1395.24163,405.325304 1395.3866,406.581062 1394.22679,408.31983 C1393.26029,409.865401 1391.9072,410.927966 1390.16749,411.507555 C1388.42777,412.087144 1386.88138,412.666725 1385.52828,413.246314 L1371.03074,419.621764 C1362.13888,423.0993 1353.3438,425.997202 1344.64524,428.315559 C1340.77921,429.088345 1336.86492,429.329837 1332.90224,429.040042 C1328.93956,428.750248 1325.26689,427.880877 1321.88412,426.431904 C1318.50134,424.982931 1315.45689,422.9061 1312.75067,420.20135 C1310.04445,417.4966 1308.11147,414.019117 1306.95166,409.768796 C1306.56506,408.223224 1306.22678,406.677676 1305.93683,405.132105 C1305.64688,403.586533 1305.6952,402.137582 1306.08181,400.785207 C1303.95549,401.751189 1301.87753,402.862052 1299.84787,404.117829 C1297.81821,405.373605 1296.03019,406.484468 1294.48378,407.45045 C1293.51728,407.836843 1292.26084,408.561319 1290.71443,409.623899 C1289.16801,410.686479 1287.62163,410.734778 1286.07522,409.768796 C1284.91541,408.99601 1284.38384,407.933446 1284.48049,406.581071 C1284.57714,405.228696 1285.20536,404.359325 1286.36517,403.972932 Z M1315.94013,395.858723 C1320.57936,395.665527 1325.07355,394.506365 1329.42283,392.381205 C1333.77211,390.256044 1337.58976,387.551335 1340.87588,384.266996 C1338.16966,383.301014 1335.51181,383.011223 1332.90224,383.397616 C1330.29267,383.784009 1327.87644,384.556783 1325.65347,385.715962 C1323.43051,386.87514 1321.4492,388.37239 1319.70949,390.207756 C1317.96977,392.043122 1316.71333,393.926759 1315.94013,395.858723 Z" id="mmaggie"></path>
        </g>
    </g>
</svg>