<svg xmlns="http://www.w3.org/2000/svg" viewBox="0 0 477.31 114.84"><title>mmaggie-signature</title><g id="Layer_2" data-name="Layer 2"><g id="Layer_1-2" data-name="Layer 1"><path d="M1.06,48.73q3.67-2.07,7.36-3.84l7.36-3.52c.74-.32,1.78-.82,3.12-1.52s2.74-1.36,4.24-2a25.44,25.44,0,0,1,4.32-1.44,5,5,0,0,1,3.36.16,2.52,2.52,0,0,1,1.36,2.24,6.12,6.12,0,0,1-1,2.72,20.46,20.46,0,0,1-2,2.72,16.1,16.1,0,0,0-1.6,2.08c-.54.86-1,1.76-1.52,2.72s-1,1.92-1.52,2.88q3.68-2.88,6.48-5t5-3.76a47,47,0,0,1,4.24-2.72,32.86,32.86,0,0,1,4.08-1.92,6.12,6.12,0,0,1,4.64-.08q2.23.89,1.6,4.08a18.74,18.74,0,0,1-1.12,4.24,30.87,30.87,0,0,1-1.92,3.92c2.34-1.38,4.69-2.8,7-4.24l7.2-4.4q3-1.92,6.48-4a18.28,18.28,0,0,1,7.12-2.56A5.85,5.85,0,0,1,79.3,36a4.27,4.27,0,0,1,1.92,2.4,7.09,7.09,0,0,1,.16,3.36,10,10,0,0,1-1.28,3.44Q78,48.57,75.94,51.53a66.07,66.07,0,0,0-3.84,6.16,12.23,12.23,0,0,0,6-.64A51.23,51.23,0,0,0,83.62,55c1.49-.53,2.88-1.09,4.16-1.68l4-1.84a11.2,11.2,0,0,0,1.52-1,17.53,17.53,0,0,1,1.92-1.2,8.78,8.78,0,0,1,2-.8,2.83,2.83,0,0,1,1.76.08c1.06.54,1.33,1.18.8,1.92a8.47,8.47,0,0,1-2.48,2.16,26.73,26.73,0,0,1-3.52,1.84c-1.23.54-2.06.91-2.48,1.12a43.51,43.51,0,0,1-4.48,2.24l-4.48,1.92c-2,.86-4.27,1.76-6.72,2.72a8.57,8.57,0,0,1-6.88,0,3.89,3.89,0,0,1-2.24-2.08,4.94,4.94,0,0,1-.24-2.64A8.09,8.09,0,0,1,67.38,55a12.59,12.59,0,0,1,1.84-2.4c.64-.74,1.41-1.54,2.32-2.4a31.41,31.41,0,0,0,2.56-2.72,13.83,13.83,0,0,0,1.92-3,5.29,5.29,0,0,0,.4-3.28,4.64,4.64,0,0,0-3.92.16C71,42,69.75,42.55,68.9,43a47.34,47.34,0,0,0-9.28,4.64Q55.14,50.49,51,53.37c-.43.32-1.18.94-2.24,1.84a29.67,29.67,0,0,1-3.36,2.48,9.82,9.82,0,0,1-3.44,1.44,1.89,1.89,0,0,1-2.32-1.44,2.45,2.45,0,0,1,.16-1.92,14.3,14.3,0,0,1,1.28-2.32c.53-.8,1.06-1.57,1.6-2.32a9.77,9.77,0,0,0,1.12-1.92L44.66,47a21.1,21.1,0,0,0,.88-2.88,33.36,33.36,0,0,0-6.88,3,67,67,0,0,0-6.16,4c-2,1.44-3.92,3-5.84,4.64s-3.9,3.23-5.92,4.72a6.09,6.09,0,0,1-1.92,1.28,2.38,2.38,0,0,1-2.24-.16c-1-.42-1.5-.93-1.6-1.52a2.61,2.61,0,0,1,.32-1.76,7.49,7.49,0,0,1,1.28-1.68l1.28-1.28a50.45,50.45,0,0,0,7.2-12.8,43.08,43.08,0,0,0-6.8,2.16l-6.32,2.64q-2.25,1.13-4.48,2.16A37.65,37.65,0,0,0,3,51.93a1.93,1.93,0,0,1-1.6.24,1.76,1.76,0,0,1-1.12-.8A2.13,2.13,0,0,1,0,50,1.63,1.63,0,0,1,1.06,48.73Z"/><path d="M96.41,48.73q3.69-2.07,7.36-3.84l7.36-3.52c.75-.32,1.79-.82,3.12-1.52s2.75-1.36,4.24-2a26,26,0,0,1,4.32-1.44,5,5,0,0,1,3.36.16,2.5,2.5,0,0,1,1.36,2.24,5.89,5.89,0,0,1-1,2.72,18.84,18.84,0,0,1-2,2.72,17.07,17.07,0,0,0-1.6,2.08c-.53.86-1,1.76-1.52,2.72s-1,1.92-1.52,2.88l6.48-5q2.81-2.16,5-3.76a49.94,49.94,0,0,1,4.24-2.72,34.27,34.27,0,0,1,4.08-1.92,6.12,6.12,0,0,1,4.64-.08q2.25.89,1.6,4.08a17.75,17.75,0,0,1-1.12,4.24A28.4,28.4,0,0,1,143,50.65c2.35-1.38,4.7-2.8,7-4.24l7.2-4.4q3-1.92,6.48-4a18.39,18.39,0,0,1,7.12-2.56,5.85,5.85,0,0,1,3.84.56,4.27,4.27,0,0,1,1.92,2.4,7,7,0,0,1,.16,3.36,9.8,9.8,0,0,1-1.28,3.44q-2.07,3.36-4.16,6.32a70.56,70.56,0,0,0-3.84,6.16,12.21,12.21,0,0,0,6-.64A49.64,49.64,0,0,0,179,55c1.5-.53,2.88-1.09,4.16-1.68l4-1.84a10.09,10.09,0,0,0,1.52-1,19.67,19.67,0,0,1,1.92-1.2,9,9,0,0,1,2-.8,2.83,2.83,0,0,1,1.76.08c1.07.54,1.34,1.18.8,1.92a8.34,8.34,0,0,1-2.48,2.16,26.12,26.12,0,0,1-3.52,1.84c-1.22.54-2,.91-2.48,1.12a41.58,41.58,0,0,1-4.48,2.24l-4.48,1.92c-2,.86-4.26,1.76-6.72,2.72a8.57,8.57,0,0,1-6.88,0,3.92,3.92,0,0,1-2.24-2.08,4.94,4.94,0,0,1-.24-2.64,8.29,8.29,0,0,1,1.12-2.8,13,13,0,0,1,1.84-2.4c.64-.74,1.42-1.54,2.32-2.4a29.94,29.94,0,0,0,2.56-2.72,13.83,13.83,0,0,0,1.92-3,5.22,5.22,0,0,0,.4-3.28,4.64,4.64,0,0,0-3.92.16c-1.54.64-2.74,1.18-3.6,1.6A47.61,47.61,0,0,0,155,47.61q-4.47,2.88-8.64,5.76c-.42.32-1.17.94-2.24,1.84a28,28,0,0,1-3.36,2.48,9.75,9.75,0,0,1-3.44,1.44A1.89,1.89,0,0,1,135,57.69a2.5,2.5,0,0,1,.16-1.92,15.11,15.11,0,0,1,1.28-2.32c.54-.8,1.07-1.57,1.6-2.32a8.86,8.86,0,0,0,1.12-1.92c.22-.53.51-1.28.88-2.24a18.62,18.62,0,0,0,.88-2.88,33.84,33.84,0,0,0-6.88,3,69.8,69.8,0,0,0-6.16,4q-3,2.16-5.84,4.64t-5.92,4.72a5.87,5.87,0,0,1-1.92,1.28,2.39,2.39,0,0,1-2.24-.16c-1-.42-1.49-.93-1.6-1.52a2.67,2.67,0,0,1,.32-1.76,7.8,7.8,0,0,1,1.28-1.68l1.28-1.28a49.85,49.85,0,0,0,7.2-12.8,43.75,43.75,0,0,0-6.8,2.16l-6.32,2.64q-2.24,1.13-4.48,2.16a39.29,39.29,0,0,0-4.48,2.48,1.92,1.92,0,0,1-1.6.24,1.82,1.82,0,0,1-1.12-.8A2.27,2.27,0,0,1,95.37,50,1.65,1.65,0,0,1,96.41,48.73Z"/><path d="M191.93,48.73c1.28-.64,2.91-1.46,4.88-2.48s4.08-2,6.32-3,4.4-1.86,6.48-2.72,3.82-1.54,5.2-2.08c.75-.32,2.08-.8,4-1.44s3.95-1.22,6.08-1.76a49,49,0,0,1,6-1.12,6.57,6.57,0,0,1,4.08.48c1.28,1.18,1.52,2.24.72,3.2a4.87,4.87,0,0,1-3,1.76l-7.2.8a17.37,17.37,0,0,0-3.76,1.52c-1,.59-2.16,1.31-3.44,2.16-.53.43-1.46,1.31-2.8,2.64s-2.64,2.78-3.92,4.32a25.93,25.93,0,0,0-3,4.48q-1.11,2.16,0,3.12c.64.54,1.68.64,3.12.32a24.8,24.8,0,0,0,4.4-1.44c1.5-.64,2.88-1.3,4.16-2A23.12,23.12,0,0,0,222.81,54a34.19,34.19,0,0,0,7.52-6.08,2.12,2.12,0,0,1,3.12-.4,2.7,2.7,0,0,1,1,3.28,4.23,4.23,0,0,1-1.12,1.92c-.53.54-1,1-1.52,1.52a5.57,5.57,0,0,0-1.2,2c-.42.75-.53,1.31-.32,1.68a1.54,1.54,0,0,0,1.12.72,17.22,17.22,0,0,0,5.6-.32,61.22,61.22,0,0,0,7-1.76,67.88,67.88,0,0,0,7.12-2.64c2.35-1,4.37-1.94,6.08-2.8a6.27,6.27,0,0,0,1.76-.88,13.81,13.81,0,0,1,2.32-1.2,6.26,6.26,0,0,1,2.32-.48,1.65,1.65,0,0,1,1.6,1,1.3,1.3,0,0,1-.08,1.76,5.55,5.55,0,0,1-2,1.36c-.85.38-1.71.72-2.56,1s-1.49.59-1.92.8c-1.81.86-3.62,1.68-5.44,2.48l-5.6,2.48c-1.28.54-2.66,1.18-4.16,1.92a34.31,34.31,0,0,1-4.64,1.92,25.75,25.75,0,0,1-4.88,1.12,9.32,9.32,0,0,1-4.56-.48c-1.81-.75-2.88-1.78-3.2-3.12a8.31,8.31,0,0,1,.16-4.24L222,59.13q-2.72,1.6-5.68,3.28a15.4,15.4,0,0,1-6.16,2,8.36,8.36,0,0,1-5.12-1.28,5.32,5.32,0,0,1-2.4-4.48,9.57,9.57,0,0,1,1.28-4.08,36.63,36.63,0,0,1,3.28-5.12,39.26,39.26,0,0,1,4.4-4.88,22.66,22.66,0,0,1,4.48-3.36,34.08,34.08,0,0,0-3.6,1.44q-2.48,1.13-5.6,2.72c-2.08,1.07-4.26,2.16-6.56,3.28s-4.4,2.16-6.32,3.12a1.92,1.92,0,0,1-1.6.24,2.18,2.18,0,0,1-1.2-.8,1.83,1.83,0,0,1-.32-1.28A1.63,1.63,0,0,1,191.93,48.73Z"/><path d="M262.49,48.73q4.15-2.07,8.16-4t8.16-3.52a58.07,58.07,0,0,1,8.88-2.4,51.64,51.64,0,0,1,9.2-.8,3.92,3.92,0,0,1,2.72.88c.64.59.69,1.58.16,3a3.14,3.14,0,0,1-2.88,1.6,56.08,56.08,0,0,0-8.4,0,26.3,26.3,0,0,0-8.08,1.92,13.64,13.64,0,0,0-2.72,1.44A17.27,17.27,0,0,0,275.05,49a6.74,6.74,0,0,0-1.68,2.64,3.88,3.88,0,0,0,.32,3,5.77,5.77,0,0,0,4.88,3.2,16.52,16.52,0,0,0,6.16-.16,16.2,16.2,0,0,0,3.68-1.28L291.29,55a11,11,0,0,1,2.32-.88,2.45,2.45,0,0,1,2.16.72,3.39,3.39,0,0,1,.08,3.68c-.69,1.39-1.25,2.56-1.68,3.52l-2.24,5.28q4.32-4.49,9.12-8.56a73,73,0,0,1,10.24-7.28c.32-.21.75-.53,1.28-1a15.93,15.93,0,0,1,1.76-1.2,7.47,7.47,0,0,1,1.92-.8,1.81,1.81,0,0,1,1.6.24c.75.54,1,1.07.8,1.6a4.78,4.78,0,0,1-1.12,1.6q-4.15,2.25-8,4.8A74.78,74.78,0,0,0,302,62.49,96.79,96.79,0,0,0,294.09,70a92.1,92.1,0,0,0-7,8.32L283,87.93q-1.92,4.8-3.84,9.76T275,107.45c-.32.64-.72,1.41-1.2,2.32a20.07,20.07,0,0,1-1.6,2.56,7.14,7.14,0,0,1-2.08,1.92,4.09,4.09,0,0,1-2.64.56,2.91,2.91,0,0,1-2.48-1.76,6.38,6.38,0,0,1-.32-3.2,21.25,21.25,0,0,1,.8-3.52c.37-1.17.72-2.13,1-2.88a83.4,83.4,0,0,1,7.6-14,148.23,148.23,0,0,1,9.68-12.88l5.44-15.52a40.25,40.25,0,0,1-6.16,1.2,26.61,26.61,0,0,1-6.16.08,13.64,13.64,0,0,1-5.2-1.6,7.71,7.71,0,0,1-3.44-4.16,7.76,7.76,0,0,1,.16-6.72l-2.64,1.68a2.71,2.71,0,0,1-2.32.56,1.73,1.73,0,0,1-1.92-1.36A1.63,1.63,0,0,1,262.49,48.73Z"/><path d="M315.45,48.73q4.16-2.07,8.16-4t8.16-3.52a57.46,57.46,0,0,1,8.88-2.4,51.64,51.64,0,0,1,9.2-.8,3.92,3.92,0,0,1,2.72.88c.64.59.69,1.58.16,3a3.14,3.14,0,0,1-2.88,1.6,56.08,56.08,0,0,0-8.4,0,26.3,26.3,0,0,0-8.08,1.92,13.64,13.64,0,0,0-2.72,1.44A17.27,17.27,0,0,0,328,49a6.74,6.74,0,0,0-1.68,2.64,3.88,3.88,0,0,0,.32,3,5.77,5.77,0,0,0,4.88,3.2,16.52,16.52,0,0,0,6.16-.16,16.2,16.2,0,0,0,3.68-1.28L344.25,55a11,11,0,0,1,2.32-.88,2.45,2.45,0,0,1,2.16.72,3.39,3.39,0,0,1,.08,3.68c-.69,1.39-1.25,2.56-1.68,3.52l-2.24,5.28q4.32-4.49,9.12-8.56a73,73,0,0,1,10.24-7.28c.32-.21.75-.53,1.28-1a15.93,15.93,0,0,1,1.76-1.2,7.47,7.47,0,0,1,1.92-.8,1.81,1.81,0,0,1,1.6.24c.75.54,1,1.07.8,1.6a4.78,4.78,0,0,1-1.12,1.6q-4.17,2.25-8,4.8A74.78,74.78,0,0,0,355,62.49,96.79,96.79,0,0,0,347.05,70a92.1,92.1,0,0,0-7,8.32l-4.16,9.6q-1.92,4.8-3.84,9.76t-4.16,9.76c-.32.64-.72,1.41-1.2,2.32a21.25,21.25,0,0,1-1.6,2.56,7.14,7.14,0,0,1-2.08,1.92,4.09,4.09,0,0,1-2.64.56,2.91,2.91,0,0,1-2.48-1.76,6.38,6.38,0,0,1-.32-3.2,21.25,21.25,0,0,1,.8-3.52c.37-1.17.72-2.13,1-2.88a83.4,83.4,0,0,1,7.6-14,148.23,148.23,0,0,1,9.68-12.88l5.44-15.52a40.25,40.25,0,0,1-6.16,1.2,26.61,26.61,0,0,1-6.16.08,13.64,13.64,0,0,1-5.2-1.6,7.71,7.71,0,0,1-3.44-4.16,7.76,7.76,0,0,1,.16-6.72l-2.64,1.68a2.71,2.71,0,0,1-2.32.56,1.72,1.72,0,0,1-1.92-1.36A1.63,1.63,0,0,1,315.45,48.73Z"/><path d="M384.41,40.89c.42-.21,1.41-.64,3-1.28a26,26,0,0,1,4.56-1.44,8.66,8.66,0,0,1,3.84-.08c1.06.27,1.44,1.26,1.12,3a8,8,0,0,1-1.36,2.88A10.56,10.56,0,0,0,394,46.81a36.43,36.43,0,0,0-1.84,5.12,5.38,5.38,0,0,0,.56,5,15,15,0,0,0,6-.64q3.27-1,6-1.92a29.85,29.85,0,0,0,3-1.6q2.24-1.27,4.72-2.48a26.66,26.66,0,0,1,4.56-1.76c1.38-.37,2.24-.24,2.56.4s.16,1.55-.8,2.4a15.21,15.21,0,0,1-3.6,2.32q-2.16,1.05-4.4,1.92t-2.88,1.2c-2.35,1.18-4.72,2.32-7.12,3.44a28.41,28.41,0,0,1-7.44,2.32q-3.36.48-4.64-1.44a8.56,8.56,0,0,1-1.28-4.88,25.83,25.83,0,0,1,.88-6.4c.58-2.29,1.2-4.4,1.84-6.32q-3.69,1.44-7.2,2.64a65.2,65.2,0,0,0-6.88,2.8q-2.88,1.29-5.76,2.88a2.42,2.42,0,0,1-2.8-.88c-.69-.9-.4-1.68.88-2.32ZM403.13,8.57A9.36,9.36,0,0,1,405.61,5a14.87,14.87,0,0,1,3.76-2.48A24,24,0,0,1,413.77,1c1.54-.37,3-.66,4.4-.88a58.09,58.09,0,0,1,11.36.48,8.62,8.62,0,0,1,2.16.32c.8.22,1.14.8,1,1.76a2.41,2.41,0,0,1-.8,1.36,1.59,1.59,0,0,1-1.44.4,38.58,38.58,0,0,0-9.68-.72,17.22,17.22,0,0,0-9,3,5.18,5.18,0,0,0-2.24,2.56,5.86,5.86,0,0,1-1.92,2.56,2.51,2.51,0,0,1-3.36,0A2.62,2.62,0,0,1,403.13,8.57Z"/><path d="M417.37,48.57c1.92-1,3.92-2,6-3.2a53.74,53.74,0,0,1,6.32-3,16.36,16.36,0,0,1,5.92-6,24.46,24.46,0,0,1,8.16-3.12,21.43,21.43,0,0,1,5.2,0,6.39,6.39,0,0,1,4.56,2.4,2.53,2.53,0,0,1,.56,2.72,7.64,7.64,0,0,1-1.92,2.72,18.61,18.61,0,0,1-3,2.32c-1.12.7-1.95,1.2-2.48,1.52a22.59,22.59,0,0,1-6.32,2.64,20.2,20.2,0,0,1-7,.56h-.64a8.93,8.93,0,0,0,2.88,5.44,13.82,13.82,0,0,0,5.28,2.8,19,19,0,0,0,6.32.72,47.2,47.2,0,0,0,6-.64,70.47,70.47,0,0,0,7.52-2,69.16,69.16,0,0,0,7.2-2.8c1.06-.53,2.16-1,3.28-1.52a32.38,32.38,0,0,0,3.12-1.52,3.08,3.08,0,0,1,2.32.32c.8.43.88,1.12.24,2.08a4.08,4.08,0,0,1-2.24,1.76c-1,.32-1.82.64-2.56,1l-8,3.52A136.71,136.71,0,0,1,449.53,62a23.87,23.87,0,0,1-6.48.4A18.74,18.74,0,0,1,437,61a15.81,15.81,0,0,1-5-3.44,12.58,12.58,0,0,1-3.2-5.76c-.22-.85-.4-1.7-.56-2.56a5.09,5.09,0,0,1,.08-2.4,31.62,31.62,0,0,0-3.44,1.84l-3,1.84a12,12,0,0,0-2.08,1.2,2.15,2.15,0,0,1-2.56.08,1.81,1.81,0,0,1-.88-1.76A1.49,1.49,0,0,1,417.37,48.57Zm16.32-4.48a18.33,18.33,0,0,0,7.44-1.92,23.27,23.27,0,0,0,6.32-4.48,9.09,9.09,0,0,0-4.4-.48,12.67,12.67,0,0,0-4,1.28A12.39,12.39,0,0,0,435.77,41,10,10,0,0,0,433.69,44.09Z"/></g></g></svg>