<?xml version="1.0" encoding="UTF-8"?>
<svg width="140px" height="23px" viewBox="0 0 140 23" version="1.1" xmlns="http://www.w3.org/2000/svg" xmlns:xlink="http://www.w3.org/1999/xlink">
    <!-- Generator: Sketch 57 (83077) - https://sketch.com -->
    <title>Group</title>
    <desc>Created with Sketch.</desc>
    <g id="Academic" stroke="none" stroke-width="1" fill="none" fill-rule="evenodd">
        <g id="Group" transform="translate(-0.175249, -0.300781)" fill="#FFFCE6" fill-rule="nonzero">
            <path d="M1.16270939,20.3007812 L0.626659238,20.2703244 C0.542019739,20.2094107 0.457380241,20.148497 0.372740743,20.0571264 C0.288101244,19.9962127 0.259888078,19.9048422 0.231674912,19.8134716 C0.203461746,19.722101 0.17524858,19.6307305 0.17524858,19.5393599 L0.231674912,19.2347914 C0.31631441,18.9911366 0.400953909,18.7474818 0.542019739,18.4733701 C0.654872404,18.2297153 0.767725069,17.9860604 0.908790899,17.7424056 C1.02164356,17.5292076 1.16270939,17.2855528 1.30377523,17.0723549 C1.44484106,16.8591569 1.58590689,16.6155021 1.72697272,16.3413904 C1.81161222,16.2500198 1.89625171,16.1281924 1.98089121,16.006365 C2.06553071,15.8845376 2.15017021,15.7627102 2.23480971,15.6713396 C2.31944921,15.5799691 2.37587554,15.4885985 2.43230187,15.397228 C2.46051504,15.3363142 2.4887282,15.3058574 2.51694137,15.2754005 C2.60158087,15.1535731 2.79907303,15.0926594 3.08120469,15.0926594 C3.27869686,15.0926594 3.41976269,15.1231163 3.50440218,15.18403 C3.56082852,15.2754005 3.58904168,15.3363142 3.58904168,15.3667711 L3.53261535,15.4885985 C3.44797585,15.5799691 3.39154952,15.6713396 3.30691002,15.7627102 C3.22227052,15.8540807 3.16584419,15.9454513 3.10941786,16.0368219 C3.02477836,16.1281924 2.96835203,16.2500198 2.9119257,16.3413904 C2.8272862,16.4632178 2.77085986,16.5850452 2.68622037,16.6764158 C2.60158087,16.7982432 2.51694137,16.9200706 2.43230187,17.0723549 L1.95267805,17.8337762 C1.89625171,17.9860604 1.81161222,18.1078878 1.72697272,18.2297153 C1.61412005,18.4733701 1.50126739,18.7170249 1.41662789,18.9606797 C1.33198839,19.2347914 1.27556206,19.3870757 1.27556206,19.4784462 C1.52948055,19.2652483 1.78339905,19.0215934 2.03731755,18.7474818 L2.5733677,18.2601721 C2.94013886,17.864233 3.30691002,17.4682939 3.67368118,17.1028117 C3.87117334,16.9200706 4.06866551,16.7373295 4.26615767,16.5241315 C4.46364983,16.3413904 4.63292883,16.1586493 4.83042099,15.9759082 C5.02791316,15.793167 5.19719215,15.6104259 5.39468432,15.4581417 C5.73324231,15.18403 6.10001347,14.9099183 6.46678463,14.6358066 L7.05926112,14.3921518 L7.8210166,14.3007812 C8.04672193,14.3312381 8.27242726,14.4226087 8.49813259,14.5139792 C8.63919842,14.6053498 8.80847742,14.8185477 8.94954325,15.0926594 L9.03418275,15.5799691 C9.00596958,15.6713396 9.00596958,15.793167 9.00596958,15.9149944 C8.92133008,16.1281924 8.86490375,16.3718472 8.83669059,16.6155021 L8.46991943,17.5901214 C8.38527993,17.8337762 8.3288536,18.0165173 8.3288536,18.1078878 C8.30064043,18.1992584 8.30064043,18.290629 8.30064043,18.3819995 C8.30064043,18.4733701 8.3288536,18.5647406 8.35706676,18.6561112 L8.52634576,18.7779386 C8.66741159,18.7779386 8.80847742,18.7474818 8.94954325,18.7170249 C9.09060908,18.6865681 9.23167491,18.6561112 9.42916707,18.6256543 C9.68308557,18.5647406 10.1344962,18.4429132 10.783399,18.2297153 L12.3351232,17.6510351 C12.8711733,17.4073802 13.4072235,17.1941823 13.9432737,16.9809843 C14.1971922,16.8591569 14.4228975,16.7373295 14.676816,16.6459589 C14.9307345,16.5545884 15.1564398,16.4327609 15.3821451,16.3413904 C15.9464085,16.0672787 16.3413928,15.8845376 16.5388849,15.793167 C16.7363771,15.7017965 16.9338693,15.6104259 17.1313614,15.4885985 C17.2724273,15.4276848 17.4134931,15.397228 17.6109853,15.397228 C17.9777564,15.397228 18.1752486,15.4885985 18.1752486,15.6408828 C18.1752486,15.7322533 18.1188222,15.793167 18.0059696,15.8540807 L17.9213301,15.8845376 L16.1156875,16.7373295 C15.9181953,16.7982432 15.4385715,17.0114411 14.676816,17.3769234 C14.4228975,17.4987508 14.1407658,17.6205782 13.8586342,17.7119488 C13.322584,17.9251467 12.7583207,18.1383447 12.2222705,18.3819995 C11.968352,18.4733701 11.6862204,18.5647406 11.4323019,18.6561112 C11.1501702,18.7474818 10.8962517,18.8083955 10.6705464,18.899766 C10.4166279,18.9911366 10.1909226,19.0520503 9.96521723,19.0825071 C9.71129874,19.1434208 9.48559341,19.2043345 9.25988808,19.2347914 L8.58277209,19.326162 C8.10314827,19.2957051 7.76459027,19.1738777 7.53888494,19.0215934 C7.42603228,18.9606797 7.31317961,18.8083955 7.20032695,18.5342838 L7.20032695,18.2601721 L7.31317961,17.6510351 C7.36960595,17.5596645 7.42603228,17.4378371 7.45424544,17.3160097 C7.48245861,17.2246391 7.53888494,17.1028117 7.56709811,17.0114411 L7.79280344,16.3413904 C7.8210166,16.2500198 7.87744294,16.1281924 7.9056561,15.9759082 C7.93386927,15.8236239 7.93386927,15.6408828 7.93386927,15.4276848 L7.87744294,15.18403 C7.79280344,15.0317457 7.70816394,14.9099183 7.62352444,14.8490046 L6.86176896,15.3058574 C6.4949978,15.5799691 6.12822664,15.8845376 5.81788181,16.219563 C5.62038965,16.3718472 5.42289748,16.5545884 5.25361849,16.7373295 L2.54515454,19.4479894 C2.4040887,19.6002736 2.26302287,19.722101 2.12195704,19.8439285 C1.78339905,20.1180401 1.47305422,20.2703244 1.16270939,20.3007812 Z M18.5085819,21.3007812 C18.0263124,21.3007812 17.6291493,21.2149227 17.3170926,21.0432055 L17.1752486,20.7856297 L17.2036174,20.2132392 C17.5440429,19.068458 18.2532628,17.5802425 19.3029082,15.7772122 L20.153972,14.3462358 C20.976667,12.9152594 22.5653195,10.4539799 24.976667,6.93377788 C25.7426245,5.81761627 26.2816316,5.07350852 26.5369507,4.64421559 L26.6504259,4.50111795 L26.6504259,4.47249842 C26.7639011,4.35802031 26.9341138,4.30078125 27.1326954,4.30078125 C27.5298585,4.30078125 27.7284401,4.38663984 27.7284401,4.55835701 C27.7284401,4.58697654 27.5014897,4.93041088 27.0192202,5.61727957 C25.3454613,8.0499395 24.3241847,9.56677452 23.9553904,10.1677846 C23.2745394,11.1694681 22.08305,13.0869765 20.3525535,15.9489294 C19.7000713,17.065091 19.0759578,18.2384917 18.5369507,19.4691314 C18.3951067,19.8698048 18.3100004,20.2990977 18.2816316,20.7570102 C18.6787947,20.5566735 19.3880145,20.0129025 20.4376599,19.1256971 C21.6575181,18.0095355 22.6220571,17.1223301 23.3029082,16.4068419 L24.6078727,15.2906802 C24.976667,15.004485 25.3454613,14.7755287 25.7426245,14.575192 C25.9979436,14.517953 26.2816316,14.4893334 26.5653195,14.4607139 L27.0192202,14.575192 C27.3312769,14.7469092 27.5014897,15.061724 27.5298585,15.5196365 C27.5298585,16.2637442 27.3880145,16.9506129 27.1326954,17.6088621 C27.047589,18.038155 26.9908514,18.3529698 26.9908514,18.4960674 C26.9908514,18.6391651 27.1043266,18.6964041 27.3596457,18.6964041 C27.7851777,18.6964041 28.7497167,18.524687 30.2816316,18.1812526 C33.1468798,17.551623 35.1043266,16.8075153 36.1256032,15.9203099 C36.2674472,15.8344513 36.4092911,15.7772122 36.6078727,15.7772122 C36.6929791,15.7772122 36.7780855,15.7772122 36.8915606,15.8058318 C37.0050358,15.8344513 37.0901422,15.8916903 37.118511,15.9203099 C37.1468798,15.9489294 37.1752486,16.0061685 37.1752486,16.034788 C37.1752486,16.1492661 36.8064543,16.4068419 36.0972344,16.8075153 C35.3596457,17.2368082 34.4518443,17.6088621 33.3738301,17.9522964 C31.5865961,18.4960674 29.5440429,18.9253604 27.2461706,19.2401752 C26.7071635,19.2401752 26.3100004,19.1543166 26.08305,19.011219 C25.941206,18.8395018 25.8844684,18.6964041 25.8844684,18.5533065 C25.8844684,18.2098722 25.9695748,17.8091988 26.1114188,17.3226668 C26.1965252,17.0364715 26.2532628,16.8361348 26.2816316,16.6930371 L26.3667379,16.3496028 C26.3951067,16.2351247 26.3951067,16.1206466 26.4234755,16.0061685 C26.4234755,15.6054951 26.3951067,15.3479193 26.3667379,15.2620607 C26.3383691,15.1762021 26.3100004,15.1189631 26.2816316,15.0331045 C26.1397876,15.1189631 25.9695748,15.2334412 25.7993621,15.3765388 C25.6291493,15.5196365 25.4589365,15.6341146 25.260355,15.7772122 C24.5511351,16.3782223 23.8986528,16.9792324 23.2461706,17.6374816 C22.3667379,18.4674479 21.6291493,19.1543166 21.0617734,19.6408486 L20.4092911,20.1846196 C19.7851777,20.7283907 19.1610642,21.1004445 18.5085819,21.3007812 Z M39.0163306,19.3007812 L38.4863221,19.3007812 C38.2352655,19.2404797 37.9842089,19.1500275 37.7331522,19.0595752 L37.6494667,18.9992737 C37.5099908,18.9088215 37.3705149,18.7882184 37.2868293,18.6374647 L37.1752486,18.3058064 C37.1752486,17.9439973 37.1752486,17.7027913 37.2031438,17.5821883 C37.2868293,17.3108315 37.3705149,17.009324 37.4820956,16.7379672 C37.5657811,16.4666104 37.6773619,16.1952536 37.8168378,15.9238968 C38.012104,15.6223893 38.1794751,15.3208818 38.3468462,14.9892235 C38.5421125,14.7178667 38.6536932,14.5369622 38.7094836,14.4465099 C38.7652739,14.3560576 38.8210643,14.2957561 38.8768547,14.2656054 C38.9047498,14.2053039 38.9047498,14.1450024 38.932645,14.1148516 C38.9605402,14.0847008 38.9605402,14.0847008 38.9884354,14.0847008 C39.0721209,13.9640978 39.2673872,13.9037963 39.546339,13.9037963 C39.853186,13.9037963 40.0205571,13.9942486 40.0205571,14.1450024 L39.9926619,14.2656054 L39.4068631,15.170128 C39.2115968,15.4414848 39.0163306,15.7429923 38.8768547,16.0444998 C38.7094836,16.3761581 38.5700077,16.6776657 38.4584269,17.009324 C38.3468462,17.3409823 38.2631607,17.6424898 38.2352655,17.9741481 C38.2352655,18.0646003 38.2352655,18.1852034 38.2631607,18.3058064 C38.2910558,18.4264094 38.3468462,18.5168617 38.4584269,18.6073139 C38.5421125,18.6977662 38.5979028,18.7580677 38.625798,18.7580677 L38.625798,18.7882184 C39.0442258,18.7882184 39.4347583,18.7580677 39.853186,18.6676154 C40.2716138,18.6073139 40.6900415,18.5168617 41.1084692,18.4264094 L42.7263897,18.0344496 C43.2006078,17.8836958 44.4837862,17.5520375 46.6317152,16.9791732 C47.6917321,16.6475149 49.2259671,16.2555551 51.2623154,15.7429923 C52.9360263,15.3208818 54.6097372,14.928922 56.2834481,14.5671129 C57.1481987,14.3862084 57.9850542,14.2354546 58.8498048,14.0847008 C59.7145554,13.9339471 60.5514109,13.8133441 61.4161615,13.6625903 C63.0619772,13.451535 64.707793,13.330932 66.3536087,13.3007812 C67.4973111,13.330932 68.6410136,13.3912335 69.784716,13.5118365 C70.0357727,13.572138 70.1752486,13.6625903 70.1752486,13.7831933 C70.1752486,13.8133441 70.1473534,13.8434948 70.1194582,13.8736456 C70.091563,13.9339471 70.0078775,13.9640978 69.8962968,13.9942486 C69.784716,14.0243993 69.6731353,14.0243993 69.5894498,14.0243993 L68.4736425,13.9037963 C67.7762629,13.8736456 67.0509882,13.8434948 66.3536087,13.8434948 C64.7914785,13.8736456 63.2293483,13.9942486 61.6951133,14.1751531 C60.4956205,14.3560576 58.8498048,14.6575652 56.729771,15.049525 C55.8929155,15.2304295 55.0560601,15.411334 54.2470998,15.5922385 C53.4102444,15.8032938 52.6012841,15.9841983 51.7923238,16.1952536 C50.9833635,16.4063089 50.2022985,16.6173642 49.4491285,16.8284194 C48.6959586,17.0394747 47.9427887,17.2203792 47.217514,17.4012838 C46.4922393,17.612339 45.7948597,17.7932436 45.0974802,17.9741481 C43.9258826,18.3058064 42.7542849,18.6073139 41.5547921,18.8786707 C40.6063559,19.1198767 39.7695005,19.2706305 39.0163306,19.3007812 Z M41.9877486,11.109375 L41.8236861,11.109375 C41.6361861,11.109375 41.4955611,11.0625 41.4018111,10.9921875 C41.4018111,10.96875 41.4018111,10.9453125 41.3783736,10.9453125 C41.5189986,10.5234375 41.6830611,10.171875 41.8705611,9.890625 C42.0346236,9.6328125 42.2455611,9.4921875 42.5033736,9.4921875 C42.5736861,9.4921875 42.6439986,9.4921875 42.7377486,9.515625 C42.8080611,9.5390625 42.8783736,9.5859375 42.9252486,9.609375 C42.9486861,9.65625 42.9721236,9.6796875 42.9721236,9.703125 C42.9721236,9.7265625 42.9018111,9.8203125 42.7377486,10.03125 C42.5736861,10.2421875 42.4330611,10.546875 42.2924361,10.921875 C42.2924361,10.9921875 42.1986861,11.0625 41.9877486,11.109375 Z" id="nhi"></path>
            <path d="M72.7188026,23.3007812 L72.6073043,23.3007812 C72.3006841,23.3007812 72.1334367,23.2181465 72.1055622,23.080422 C72.1055622,22.8600627 72.1334367,22.6397034 72.1613113,22.4193441 C72.4121824,21.6205417 72.6630535,20.8492842 72.9696737,20.1055717 L74.4749001,16.7726375 L75.3947608,14.8444938 L77.4574785,10.8229369 L79.5201963,6.91155969 L78.070719,8.92233814 C77.7362242,9.39060161 77.4017294,9.83132017 77.0951092,10.2995836 C76.7606144,10.7678471 76.4261197,11.2361106 76.1194995,11.6492842 C75.8128792,12.0900028 75.506259,12.5307214 75.1996388,12.943895 C74.6978967,13.6876076 74.1682799,14.4037753 73.6386632,15.1199429 L72.6351789,16.5522783 L72.2728096,17.0205417 C72.0219385,17.2684459 71.7431928,17.4888052 71.4365726,17.6816196 L70.9905796,17.9019789 C70.6282103,18.0397034 70.2658409,18.0947932 69.875597,18.0947932 L69.3181057,18.0397034 C68.9836109,17.9295238 68.7327399,17.7917992 68.5654925,17.6265298 L68.342496,17.3510807 C68.2309977,17.1582663 68.1752486,16.937907 68.1752486,16.6624579 C68.1752486,16.5247333 68.2031231,16.3594639 68.2309977,16.2217393 C68.2588723,16.0840148 68.3146214,15.9187453 68.3703705,15.7534759 C68.5654925,15.395392 68.788489,15.0373082 69.0393601,14.7067693 C69.2902312,14.3762304 69.5689768,14.0456914 69.875597,13.7426974 L70.32159,13.3846136 L71.2693252,12.8888052 C71.5759454,12.7510807 71.8825657,12.6684459 72.1891859,12.6133561 C72.4958061,12.5582663 72.88605,12.5307214 73.332043,12.5307214 L73.6944123,12.5582663 C73.8895343,12.640901 74.0567817,12.6684459 74.2519036,12.6684459 L75.060266,11.5391046 C75.3668862,11.0708411 75.701381,10.6301226 76.0358758,10.1618591 C76.3703705,9.69359562 76.7048653,9.25287706 77.0393601,8.78461359 L80.8303008,3.52353574 C81.2762939,2.8624579 81.7501615,2.20138005 82.2240291,1.56784712 L83.1160151,0.30078125 L84.1752486,0.438505801 L84.147374,0.466050711 C84.0916249,0.603775262 83.9243775,0.879224364 83.6735064,1.29239802 L83.1160151,2.3391046 C82.865144,2.77982317 82.614273,3.22054173 82.3912765,3.66126029 L81.527165,5.23132017 L79.5480709,8.94988305 L76.9557364,13.9630567 L75.1160151,17.7642543 C74.6421475,18.783416 74.1682799,19.8301226 73.7501615,20.8768292 C73.4714158,21.6205417 73.2762939,22.2816196 73.1926702,22.8049729 L73.1926702,23.080422 C73.1926702,23.2181465 73.0254228,23.3007812 72.7188026,23.3007812 Z M69.9536917,17.3007812 C70.1333324,17.2708411 70.3129731,17.2109609 70.4626737,17.1211405 C70.7321348,16.9714399 70.9716558,16.8217393 71.1812366,16.6121585 C71.3009971,16.492398 71.4207576,16.3426974 71.540518,16.1929968 C71.6602785,16.0432962 71.780039,15.8636555 71.9297396,15.6840148 L73.1572845,13.8876076 C73.4566857,13.498386 73.7261468,13.1091645 73.9956079,12.6900028 L74.1752486,12.4504818 L74.025548,12.3906016 C73.8459073,12.3307214 73.5465061,12.3007812 73.0974043,12.3007812 C72.8878234,12.3307214 72.6782426,12.3606615 72.4686618,12.4205417 C72.2291408,12.5103621 71.9896198,12.6301226 71.7201588,12.7798232 C71.4506977,12.9295238 71.1512965,13.1391046 70.8818354,13.3486854 C70.5824342,13.6480866 70.3129731,13.977428 70.0435121,14.3067693 C69.774051,14.6361106 69.5644701,14.995392 69.3848294,15.3546735 C69.2950091,15.6540747 69.2051887,15.9534759 69.1752486,16.2528771 C69.2051887,16.4624579 69.2650689,16.6720387 69.3548893,16.8217393 C69.4447097,17.0013801 69.53453,17.1211405 69.6542905,17.1810208 C69.774051,17.2708411 69.8638713,17.3007812 69.9536917,17.3007812 Z M85.8562091,17.3007812 C85.5268781,17.3007812 85.2798798,17.3007812 85.1426585,17.2743495 L84.7309947,17.1950544 C84.5937735,17.1686227 84.4839964,17.1421909 84.3467752,17.0893275 C84.2095539,17.0364641 84.0723326,16.9571689 83.9899999,16.8250103 L83.8802229,16.5078297 C83.8802229,16.3228077 83.8802229,16.1906491 83.9076671,16.1113539 C83.9076671,16.0320588 83.9351114,15.8999002 84.0174441,15.7148782 C84.0723326,15.5298561 84.1272211,15.3712658 84.1546654,15.2126755 L84.4291079,14.604746 C84.3193309,14.6576094 84.2095539,14.7369046 84.0723326,14.8161998 C83.9351114,14.8954949 83.7978901,15.0012218 83.6332246,15.1069487 L83.139228,15.4241293 C82.9471182,15.5298561 82.6177872,15.6884464 82.1237906,15.8999002 C81.8493481,15.9527636 81.5749055,15.9791953 81.300463,16.0056271 L80.7515779,15.8999002 L80.4222469,15.7148782 C80.2850256,15.5827196 80.2026928,15.4241293 80.1752486,15.2391072 C80.1752486,14.9483583 80.2301371,14.6840412 80.3124698,14.4461557 C80.3948026,14.2082702 80.5045796,13.9439531 80.6418009,13.7060676 C80.7241337,13.573909 80.8339107,13.4417504 80.9436877,13.3095918 C81.0260204,13.1774332 81.1357975,13.0452746 81.2730187,12.9131161 C81.3827957,12.7809575 81.520017,12.6487989 81.6572383,12.5166403 L82.0689021,12.1201645 C82.4256774,11.8558473 82.7275642,11.6708253 82.9471182,11.5650984 C83.249005,11.4593716 83.5783361,11.3800764 83.9076671,11.3007812 L84.4016637,11.3007812 C84.6761062,11.327213 84.9505488,11.3800764 85.2249913,11.4593716 L85.7738764,11.7236887 C85.8562091,11.7765522 85.9110976,11.8294156 85.9659861,11.882279 L86.3502057,12.2523231 C86.4050942,12.3316183 86.4325385,12.3844817 86.4599827,12.4373451 C86.487427,12.4637768 86.487427,12.4902086 86.487427,12.5166403 C86.487427,12.6487989 86.3227614,12.728094 85.9659861,12.728094 C85.6915436,12.728094 85.5268781,12.6752306 85.4445453,12.543072 C85.4171011,12.4902086 85.3622126,12.4373451 85.3073241,12.35805 C85.2524355,12.3051865 85.1701028,12.2258914 85.08777,12.1201645 L84.758439,11.882279 C84.6212177,11.8029839 84.5114407,11.7765522 84.4016637,11.7765522 L84.3467752,11.7501205 C84.2369982,11.7501205 84.1546654,11.7501205 84.0997769,11.7765522 L83.8527786,11.8558473 C83.7704458,11.882279 83.6606688,11.9351425 83.5508918,11.9880059 C83.4411148,12.0408694 83.3313378,12.1201645 83.2215608,12.1994597 C82.919674,12.3844817 82.6726757,12.6223672 82.4256774,12.8602526 C82.1786791,13.0981381 81.9865693,13.3624553 81.7944596,13.6532042 C81.6023498,13.9439531 81.4651285,14.1818385 81.41024,14.3668605 C81.3553515,14.4461557 81.3279072,14.5518826 81.300463,14.6576094 C81.2730187,14.7633363 81.2730187,14.8690632 81.2455745,14.9483583 C81.2455745,15.1862438 81.2730187,15.3448341 81.3279072,15.450561 C81.3553515,15.4769927 81.3827957,15.5034244 81.3827957,15.5298561 L81.520017,15.5034244 C81.7670153,15.4241293 82.0140136,15.2919707 82.2610119,15.1598121 L83.249005,14.5518826 L83.9899999,14.0496799 L84.868216,13.4153187 L85.0328815,13.3360235 C85.08777,13.3095918 85.1426585,13.2567284 85.2249913,13.2302967 L85.7189879,13.203865 L86.0757632,13.388887 C86.0757632,13.4681821 86.0757632,13.5210456 86.0483189,13.6003407 C86.0208747,13.6796359 85.9659861,13.758931 85.9110976,13.8382262 C85.8562091,13.9175213 85.8013206,14.0232482 85.7464321,14.1289751 L85.4445453,14.7369046 C85.3622126,14.8690632 85.3073241,15.0276535 85.2524355,15.1598121 C85.1701028,15.3184024 85.1152143,15.4769927 85.08777,15.6091513 C85.0603258,15.7677416 85.0054373,15.8999002 84.977993,16.0320588 C84.977993,16.1113539 84.977993,16.1642174 84.9505488,16.2170808 L84.9505488,16.481398 C84.977993,16.5078297 84.977993,16.5606931 85.0054373,16.6135566 C85.0328815,16.66642 85.0328815,16.7192835 85.0603258,16.7457152 C85.08777,16.7721469 85.08777,16.7985786 85.1152143,16.7985786 L85.8013206,16.851442 C85.9385419,16.8250103 86.0757632,16.8250103 86.2404287,16.7985786 C86.37765,16.7985786 86.5423155,16.7721469 86.706981,16.7457152 C86.9539793,16.7192835 87.3656431,16.6399883 87.9419724,16.5078297 C88.1889707,16.4285346 88.435969,16.3756711 88.6829673,16.3228077 L90.3021783,15.7413099 L91.1803944,15.3448341 C91.5920582,15.1598121 92.223276,14.8161998 93.1014921,14.3668605 C93.8150427,13.9175213 94.5011491,13.4681821 95.1872554,13.0188429 C95.3244767,12.9659795 95.461698,12.9395478 95.6538078,12.9395478 L95.900806,12.9659795 C96.0929158,13.0188429 96.1752486,13.0717064 96.1752486,13.1510015 C96.1752486,13.203865 96.1478043,13.2567284 96.0929158,13.2831601 L94.9951457,13.9968165 C94.5285933,14.2875654 93.842487,14.6840412 92.9368266,15.1862438 C92.0860548,15.6091513 91.4273927,15.8999002 91.0157289,16.0584905 C90.2472897,16.3492394 89.6709604,16.5606931 89.2867409,16.66642 C88.7653,16.8250103 88.2438592,16.9571689 87.7224184,17.0628958 C87.0912006,17.1950544 86.487427,17.2743495 85.8562091,17.3007812 Z M96.8623192,19.3007812 C96.6424566,19.3007812 96.4500768,19.1583311 96.3126627,18.8449408 C96.2302142,18.7024907 96.2027314,18.5600405 96.1752486,18.3891003 C96.2027314,17.7908097 96.3401455,17.1925191 96.5325253,16.6227186 C96.8623192,15.8249978 97.3844928,14.8278468 98.126529,13.6312656 C98.3738744,13.2039152 98.593737,12.8905248 98.7861168,12.6626046 L98.9784965,12.4061944 C99.060945,12.2637442 99.1159107,12.1782741 99.1433935,12.1782741 C99.225842,12.064314 99.2808076,12.007334 99.3632561,12.007334 C99.4457045,12.007334 99.5006702,12.092804 99.5006702,12.2922342 C99.5006702,12.4631744 99.4182217,12.6626046 99.2808076,12.9190149 C98.758634,13.6597556 98.2639431,14.4289864 97.7967352,15.1982171 L97.5219069,15.6825476 C97.2470787,16.1668781 97.0546989,16.6512086 96.9172848,17.078559 L96.7523879,17.5343995 C96.7523879,17.8762798 96.8348363,18.1326901 97.0272161,18.2751402 L97.2470787,18.2466502 C97.7142867,17.9332599 98.2364603,17.3064793 98.8685653,16.3378183 C99.4457045,15.4546274 99.995361,14.5714365 100.545017,13.6882456 C101.067191,12.8050548 101.64433,11.9503539 102.248953,11.1241431 L103.2933,9.84209179 C103.705542,9.52870148 104.007853,9.35776131 104.255199,9.30078125 C104.447578,9.32927128 104.667441,9.44323139 104.859821,9.67115162 C104.969752,9.89907185 105.024718,10.1839721 105.024718,10.5258525 C104.997235,10.8677328 104.914786,11.3805533 104.777372,12.092804 C104.420096,13.1184451 104.227716,13.8022058 104.145267,14.1440861 C104.117784,14.3150263 104.090302,14.5144565 104.090302,14.7423767 C104.090302,15.1127471 104.337647,15.3121773 104.832338,15.3121773 C105.024718,15.2551972 105.217097,15.1697271 105.409477,15.055767 C105.491926,14.9702969 105.574374,14.9133169 105.656823,14.8563368 C105.739271,14.7993567 105.794237,14.7138867 105.876685,14.6284166 C105.959134,14.5429465 106.014099,14.4859664 106.096548,14.4004963 C106.261445,14.2295562 106.398859,14.058616 106.536273,13.8876758 C106.673687,13.7167357 106.811101,13.5457955 106.975998,13.3748553 C107.113412,13.2324052 107.278309,13.089955 107.415723,12.9475049 C107.553137,12.8050548 107.690552,12.7480747 107.800483,12.7480747 C107.937897,12.7480747 108.047828,12.8050548 108.130277,12.9190149 C108.240208,13.2608952 108.295174,13.7452257 108.295174,14.4004963 C108.295174,14.6569066 108.350139,14.8563368 108.432588,14.9987869 C108.515036,15.1412371 108.624968,15.3406673 108.817347,15.5400975 C109.064693,15.6540576 109.22959,15.7110377 109.339521,15.7395277 C110.10904,15.6540576 111.098422,15.4546274 112.280183,15.1412371 C113.461944,14.8278468 114.946017,14.4289864 116.759883,13.9446559 C120.030339,13.089955 123.520658,12.2637442 127.175873,11.4945134 C129.319533,11.1241431 131.765505,10.7822627 134.513787,10.5258525 L136.849827,10.4688724 C139.075936,10.4973624 140.175249,10.6683026 140.175249,10.9816929 C140.175249,11.067163 140.147766,11.1526331 140.120283,11.2665932 C140.0928,11.4090434 140.037834,11.4945134 139.955386,11.5799835 C139.872938,11.6654536 139.817972,11.7224337 139.735523,11.7224337 C138.526279,11.5799835 137.097172,11.5230035 135.42072,11.5230035 C132.370127,11.7509237 129.539396,12.092804 126.928528,12.5486445 C125.307041,12.8620348 123.685555,13.2324052 122.064068,13.6027756 C121.294549,13.8022058 120.52503,13.9731459 119.782994,14.1440861 C119.040958,14.3435163 118.298921,14.5144565 117.611851,14.7138867 C116.92478,14.9133169 116.23771,15.084257 115.605605,15.2551972 C114.946017,15.4261374 114.313912,15.5970775 113.70929,15.7680177 C111.703044,16.3378183 110.136523,16.6796986 109.03721,16.7936587 C108.597485,16.7081887 108.240208,16.4517784 107.937897,16.024428 C107.800483,15.6540576 107.718034,15.2836872 107.718034,14.9133169 C107.718034,14.4004963 107.718034,14.087106 107.690552,13.9731459 C107.663069,13.8591858 107.58062,13.8022058 107.498172,13.8022058 C107.470689,13.8022058 107.443206,13.8022058 107.415723,13.8022058 C107.360758,13.8306958 107.168378,14.058616 106.811101,14.4859664 C106.453824,14.9133169 106.206479,15.2267072 106.041582,15.3976473 C105.959134,15.4831174 105.684305,15.7395277 105.217097,16.1098981 C104.832338,16.2808382 104.584992,16.3663083 104.475061,16.3663083 C103.842956,16.3663083 103.513162,15.9389579 103.513162,15.084257 C103.595611,14.4004963 103.733025,13.7167357 103.98037,13.032975 C104.145267,12.5771345 104.310164,11.9503539 104.447578,11.1811231 C104.447578,10.9247129 104.447578,10.7822627 104.420096,10.6967926 C104.392613,10.6398126 104.337647,10.5828325 104.282681,10.4973624 C104.200233,10.4403824 104.117784,10.3834023 103.98037,10.3549123 C103.650576,10.4118924 103.2933,10.6967926 102.90854,11.2381032 C102.523781,11.6939436 101.809227,12.7195847 100.76488,14.3435163 C99.4731874,16.4232884 98.6212198,17.6768496 98.2639431,18.1326901 C97.824218,18.6170206 97.4944241,18.9589009 97.3020443,19.1298411 C97.1646302,19.2153112 96.9997333,19.2722912 96.8623192,19.3007812 Z" id="dam"></path>
        </g>
    </g>
</svg>