<?xml version="1.0" encoding="UTF-8"?>
<svg width="74px" height="12px" viewBox="0 0 74 12" version="1.1" xmlns="http://www.w3.org/2000/svg" xmlns:xlink="http://www.w3.org/1999/xlink">
    <!-- Generator: Sketch 57 (83077) - https://sketch.com -->
    <title>Group 2</title>
    <desc>Created with Sketch.</desc>
    <g id="Academic" stroke="none" stroke-width="1" fill="none" fill-rule="evenodd">
        <g id="Group-2" fill="#FFFCE6" fill-rule="nonzero">
            <path d="M0.181714311,8.92 C0.357715191,8.82399952 0.661712151,8.66000116 1.09371431,8.428 C1.52571647,8.19599884 1.96971203,7.97600104 2.42571431,7.768 C2.88171659,7.55999896 3.30171239,7.4160004 3.68571431,7.336 C4.06971623,7.2559996 4.30971383,7.31999896 4.40571431,7.528 C4.46971463,7.6880008 4.44971483,7.84399924 4.34571431,7.996 C4.24171379,8.14800076 4.16571455,8.28799936 4.11771431,8.416 L3.82971431,9.088 C4.03771535,8.95999936 4.24571327,8.84800048 4.45371431,8.752 L5.07771431,8.464 C5.58971687,8.19199864 6.11771159,7.90400152 6.66171431,7.6 C7.20571703,7.29599848 7.75771151,7.0640008 8.31771431,6.904 C8.52571535,6.85599976 8.70971351,6.8519998 8.86971431,6.892 C9.02971511,6.9320002 9.15371387,7.00399948 9.24171431,7.108 C9.32971475,7.21200052 9.37371431,7.34799916 9.37371431,7.516 C9.37371431,7.68400084 9.30971495,7.86399904 9.18171431,8.056 C9.03771359,8.28000112 8.88171515,8.47999912 8.71371431,8.656 C8.54571347,8.83200088 8.37371519,9.02399896 8.19771431,9.232 C8.16571415,9.28000024 8.10971471,9.3439996 8.02971431,9.424 C7.94971391,9.5040004 7.86571475,9.59599948 7.77771431,9.7 C7.68971387,9.80400052 7.60971467,9.90799948 7.53771431,10.012 C7.46571395,10.1160005 7.42171439,10.2079996 7.40571431,10.288 C7.51771487,10.3200002 7.65771347,10.3200002 7.82571431,10.288 C7.99371515,10.2559998 8.16171347,10.2120003 8.32971431,10.156 C8.49771515,10.0999997 8.65771355,10.0400003 8.80971431,9.976 C8.96171507,9.91199968 9.07771391,9.86400016 9.15771431,9.832 L10.1417143,9.4 C10.2057146,9.36799984 10.2897138,9.32000032 10.3937143,9.256 C10.4977148,9.19199968 10.6057138,9.13200028 10.7177143,9.076 C10.8297149,9.01999972 10.9377138,8.96800024 11.0417143,8.92 C11.1457148,8.87199976 11.229714,8.848 11.2937143,8.848 C11.437715,8.848 11.5097143,8.91999928 11.5097143,9.064 C11.5097143,9.20800072 11.445715,9.3199996 11.3177143,9.4 C11.1737136,9.4800004 11.0217151,9.55599964 10.8617143,9.628 C10.7017135,9.70000036 10.5337152,9.7759996 10.3577143,9.856 C10.1337132,9.98400064 9.91771535,10.0959995 9.70971431,10.192 C9.50171327,10.2880005 9.28571543,10.3919994 9.06171431,10.504 C8.93371367,10.5680003 8.72971571,10.6599994 8.44971431,10.78 C8.16971291,10.9000006 7.88971571,10.9879997 7.60971431,11.044 C7.32971291,11.1000003 7.08571535,11.0920004 6.87771431,11.02 C6.66971327,10.9479996 6.56571431,10.7520016 6.56571431,10.432 C6.56571431,10.2719992 6.60571391,10.1280006 6.68571431,10 C6.76571471,9.87199936 6.85771379,9.7480006 6.96171431,9.628 C7.06571483,9.5079994 7.17771371,9.39200056 7.29771431,9.28 C7.41771491,9.16799944 7.52571383,9.06400048 7.62171431,8.968 C7.71771479,8.8879996 7.87771319,8.72000128 8.10171431,8.464 C8.32571543,8.20799872 8.46971399,7.96800112 8.53371431,7.744 C8.10171215,7.79200024 7.66571651,7.90399912 7.22571431,8.08 C6.78571211,8.25600088 6.38171615,8.43999904 6.01371431,8.632 C5.54971199,8.85600112 5.06971679,9.1079986 4.57371431,9.388 C4.07771183,9.6680014 3.64571615,9.99999808 3.27771431,10.384 C3.19771391,10.4480003 3.11371475,10.484 3.02571431,10.492 C2.93771387,10.5 2.85371471,10.4840002 2.77371431,10.444 C2.69371391,10.4039998 2.63371451,10.3440004 2.59371431,10.264 C2.55371411,10.1839996 2.54971415,10.0800006 2.58171431,9.952 C2.62971455,9.80799928 2.74971335,9.68000056 2.94171431,9.568 C3.02171471,9.43999936 3.10171391,9.29200084 3.18171431,9.124 C3.26171471,8.95599916 3.31771415,8.85600016 3.34971431,8.824 C3.38171447,8.71199944 3.41371415,8.5960006 3.44571431,8.476 C3.47771447,8.3559994 3.50171423,8.23200064 3.51771431,8.104 C3.34171343,8.15200024 3.16571519,8.20799968 2.98971431,8.272 C2.81371343,8.33600032 2.67771479,8.38399984 2.58171431,8.416 C2.35771319,8.51200048 2.13371543,8.60399956 1.90971431,8.692 C1.68571319,8.78000044 1.46171543,8.87999944 1.23771431,8.992 C1.10971367,9.05600032 0.993714831,9.11999968 0.889714311,9.184 C0.785713791,9.24800032 0.669714951,9.30399976 0.541714311,9.352 C0.445713831,9.40000024 0.353714751,9.41200012 0.265714311,9.388 C0.177713871,9.36399988 0.109714551,9.32800024 0.0617143109,9.28 C0.0137140709,9.23199976 -0.0062857291,9.17200036 0.0017143109,9.1 C0.0097143509,9.02799964 0.0697137509,8.96800024 0.181714311,8.92 Z M12.2646234,8.896 C13.2726284,8.4159976 14.2486187,7.8960028 15.1926234,7.336 C16.1366281,6.7759972 16.95262,6.16000336 17.6406234,5.488 L18.5046234,3.928 C18.7766248,3.46399768 19.0726218,2.98800244 19.3926234,2.5 C19.712625,2.01199756 20.0966212,1.61600152 20.5446234,1.312 C20.656624,1.24799968 20.8166224,1.18000036 21.0246234,1.108 C21.2326244,1.03599964 21.4286225,1 21.6126234,1 C21.7966243,1 21.9406229,1.05199948 22.0446234,1.156 C22.1486239,1.26000052 22.1526239,1.45599856 22.0566234,1.744 C21.976623,1.96800112 21.8606242,2.179999 21.7086234,2.38 C21.5566226,2.580001 21.3886243,2.77599904 21.2046234,2.968 C21.0206225,3.16000096 20.8326244,3.33999916 20.6406234,3.508 C20.4486224,3.67600084 20.2806241,3.8399992 20.1366234,4 C19.8006217,4.3200016 19.4566252,4.6399984 19.1046234,4.96 C18.7526216,5.2800016 18.3926252,5.58399856 18.0246234,5.872 C17.9286229,6.04800088 17.8366238,6.21999916 17.7486234,6.388 C17.660623,6.55600084 17.5766238,6.72799912 17.4966234,6.904 L17.0646234,7.72 C16.9206227,7.99200136 16.7606243,8.26399864 16.5846234,8.536 C17.0806259,8.24799856 17.5886208,7.98000124 18.1086234,7.732 C18.628626,7.48399876 19.1446208,7.24800112 19.6566234,7.024 C19.8326243,6.92799952 20.0366222,6.84800032 20.2686234,6.784 C20.5006246,6.71999968 20.7286223,6.71999968 20.9526234,6.784 C21.1926246,6.8640004 21.3446231,7.01599888 21.4086234,7.24 C21.4726237,7.46400112 21.440624,7.68799888 21.3126234,7.912 C21.2166229,8.10400096 21.0926242,8.29599904 20.9406234,8.488 C20.7886226,8.68000096 20.6326242,8.875999 20.4726234,9.076 C20.3126226,9.276001 20.176624,9.48399892 20.0646234,9.7 C19.9526228,9.91600108 19.8966234,10.127999 19.8966234,10.336 C20.3126255,10.2879998 20.7486211,10.164001 21.2046234,9.964 C21.6606257,9.763999 22.0726216,9.56800096 22.4406234,9.376 C22.568624,9.31199968 22.7166226,9.22800052 22.8846234,9.124 C23.0526242,9.01999948 23.2006228,8.94400024 23.3286234,8.896 C23.4086238,8.84799976 23.484623,8.83999984 23.5566234,8.872 C23.6286238,8.90400016 23.6846232,8.94799972 23.7246234,9.004 C23.7646236,9.06000028 23.7806234,9.1279996 23.7726234,9.208 C23.7646234,9.2880004 23.7126239,9.35199976 23.6166234,9.4 C23.2646216,9.60800104 22.9046252,9.79599916 22.5366234,9.964 C22.1686216,10.1320008 21.8086252,10.319999 21.4566234,10.528 C21.3126227,10.6080004 21.1446244,10.7039994 20.9526234,10.816 C20.7606224,10.9280006 20.5646244,11.0159997 20.3646234,11.08 C20.1646224,11.1440003 19.9646244,11.1680001 19.7646234,11.152 C19.5646224,11.1359999 19.3926241,11.0400009 19.2486234,10.864 C19.1366228,10.7199993 19.0846234,10.5680008 19.0926234,10.408 C19.1006234,10.2479992 19.140623,10.0920008 19.2126234,9.94 C19.2846238,9.78799924 19.3726229,9.64000072 19.4766234,9.496 C19.5806239,9.35199928 19.672623,9.22400056 19.7526234,9.112 C19.9286243,8.88799888 20.1006226,8.64800128 20.2686234,8.392 C20.4366242,8.13599872 20.5366232,7.87200136 20.5686234,7.6 C20.4406228,7.58399992 20.3006242,7.59199984 20.1486234,7.624 C19.9966226,7.65600016 19.8406242,7.69999972 19.6806234,7.756 C19.5206226,7.81200028 19.3646242,7.87199968 19.2126234,7.936 C19.0606226,8 18.928624,8.04799984 18.8166234,8.08 C18.4646216,8.2400008 18.124625,8.41199908 17.7966234,8.596 C17.4686218,8.78000092 17.144625,8.97599896 16.8246234,9.184 C16.3126208,9.55200184 15.9526244,9.82799908 15.7446234,10.012 C15.5366224,10.1960009 15.3846239,10.3279996 15.2886234,10.408 C15.208623,10.4880004 15.1166239,10.5439998 15.0126234,10.576 C14.9086229,10.6080002 14.792624,10.5760005 14.6646234,10.48 C14.5366228,10.3679994 14.4806233,10.2600005 14.4966234,10.156 C14.5126235,10.0519995 14.560623,9.95200048 14.6406234,9.856 C15.1046257,9.3759976 15.5326214,8.86400272 15.9246234,8.32 C16.3166254,7.77599728 16.6726218,7.21600288 16.9926234,6.64 C16.5606212,6.97600168 16.1246256,7.28799856 15.6846234,7.576 C15.2446212,7.86400144 14.8006256,8.14399864 14.3526234,8.416 C14.080622,8.59200088 13.8126247,8.75199928 13.5486234,8.896 C13.2846221,9.04000072 13.0166248,9.18399928 12.7446234,9.328 C12.664623,9.36000016 12.5806238,9.3959998 12.4926234,9.436 C12.404623,9.4760002 12.3206238,9.46400032 12.2406234,9.4 C12.160623,9.33599968 12.1206234,9.24800056 12.1206234,9.136 C12.1206234,9.02399944 12.1686229,8.94400024 12.2646234,8.896 Z M19.8726234,3.448 C20.0806244,3.23999896 20.2926234,3.0160012 20.5086234,2.776 C20.7246245,2.5359988 20.9046227,2.27200144 21.0486234,1.984 C20.6806216,2.16000088 20.3526248,2.40399844 20.0646234,2.716 C19.776622,3.02800156 19.5206245,3.3439984 19.2966234,3.664 L18.7926234,4.504 C18.9686243,4.32799912 19.1486225,4.15200088 19.3326234,3.976 C19.5166243,3.79999912 19.6966225,3.62400088 19.8726234,3.448 Z M26.7715325,7.744 C26.8355328,7.71199984 26.9835313,7.64800048 27.2155325,7.552 C27.4475337,7.45599952 27.6755314,7.38400024 27.8995325,7.336 C28.1235336,7.28799976 28.3155317,7.2839998 28.4755325,7.324 C28.6355333,7.3640002 28.6915327,7.51199872 28.6435325,7.768 C28.6115323,7.91200072 28.543533,8.05599928 28.4395325,8.2 C28.335532,8.34400072 28.2595327,8.48799928 28.2115325,8.632 C28.115532,8.84000104 28.0235329,9.09599848 27.9355325,9.4 C27.8475321,9.70400152 27.8755318,9.95199904 28.0195325,10.144 C28.2915339,10.1760002 28.5915309,10.1440005 28.9195325,10.048 C29.2475341,9.95199952 29.5475311,9.85600048 29.8195325,9.76 C29.8995329,9.72799984 30.0515314,9.64800064 30.2755325,9.52 C30.4995336,9.39199936 30.7355313,9.2680006 30.9835325,9.148 C31.2315337,9.0279994 31.4595315,8.94000028 31.6675325,8.884 C31.8755335,8.82799972 32.0035323,8.84799952 32.0515325,8.944 C32.1155328,9.05600056 32.0755332,9.17599936 31.9315325,9.304 C31.7875318,9.43200064 31.6075336,9.54799948 31.3915325,9.652 C31.1755314,9.75600052 30.9555336,9.85199956 30.7315325,9.94 C30.5075314,10.0280004 30.3635328,10.0879998 30.2995325,10.12 C29.9475307,10.2960009 29.5915343,10.4679992 29.2315325,10.636 C28.8715307,10.8040008 28.4995344,10.9199997 28.1155325,10.984 C27.7795308,11.0320002 27.5475331,10.960001 27.4195325,10.768 C27.2915319,10.575999 27.2275325,10.3320015 27.2275325,10.036 C27.2275325,9.73999852 27.2715321,9.42000172 27.3595325,9.076 C27.4475329,8.73199828 27.539532,8.41600144 27.6355325,8.128 C27.2675307,8.27200072 26.9075343,8.4039994 26.5555325,8.524 C26.2035307,8.6440006 25.8595342,8.7839992 25.5235325,8.944 C25.2355311,9.07200064 24.9475339,9.2159992 24.6595325,9.376 C24.4835316,9.42400024 24.343533,9.38000068 24.2395325,9.244 C24.135532,9.10799932 24.1795315,8.99200048 24.3715325,8.896 L26.7715325,7.744 Z M29.5795325,2.896 C29.6595329,2.68799896 29.7835317,2.50800076 29.9515325,2.356 C30.1195333,2.20399924 30.3075315,2.08000048 30.5155325,1.984 C30.7235335,1.88799952 30.9435313,1.81200028 31.1755325,1.756 C31.4075337,1.69999972 31.6275315,1.65600016 31.8355325,1.624 C32.4115354,1.59199984 32.9795297,1.6159996 33.5395325,1.696 C33.635533,1.696 33.7435319,1.71199984 33.8635325,1.744 C33.9835331,1.77600016 34.0355326,1.86399928 34.0195325,2.008 C34.0035324,2.0880004 33.9635328,2.15599972 33.8995325,2.212 C33.8355322,2.26800028 33.7635329,2.28800008 33.6835325,2.272 C33.2195302,2.17599952 32.735535,2.13999988 32.2315325,2.164 C31.72753,2.18800012 31.2755345,2.33599864 30.8755325,2.608 C30.7155317,2.70400048 30.6035328,2.8319992 30.5395325,2.992 C30.4755322,3.1520008 30.3795331,3.27999952 30.2515325,3.376 C30.0915317,3.50400064 29.9235334,3.50400064 29.7475325,3.376 C29.5715316,3.24799936 29.5155322,3.08800096 29.5795325,2.896 Z" id="nhi"></path>
            <path d="M36.1776001,8.37600012 C36.5936021,8.2319994 36.9895982,8.05600116 37.3656001,7.84800012 C37.7416019,7.63999908 38.1295981,7.448001 38.5296001,7.27200012 C38.7856013,7.14399948 39.0495987,7.04000052 39.3216001,6.96000012 L40.1376001,6.72000012 C40.4576017,6.60799956 40.8015982,6.55200012 41.1696001,6.55200012 C41.3136008,6.55200012 41.4335996,6.61599948 41.5296001,6.74400012 C41.6256005,6.87200076 41.6336005,7.0079994 41.5536001,7.15200012 C41.5055998,7.2480006 41.4336005,7.31599992 41.3376001,7.35600012 C41.2415996,7.39600032 41.1336007,7.42000008 41.0136001,7.42800012 C40.8935995,7.43600016 40.7736007,7.44000012 40.6536001,7.44000012 L40.3296001,7.44000012 C40.1055989,7.4560002 39.8776012,7.52399952 39.6456001,7.64400012 C39.4135989,7.76400072 39.1936011,7.91199924 38.9856001,8.08800012 C38.7135987,8.28000108 38.4656012,8.53599852 38.2416001,8.85600012 C38.2256,8.88800028 38.1896003,8.9559996 38.1336001,9.06000012 C38.0775998,9.16400064 38.0256003,9.27199956 37.9776001,9.38400012 C37.9295998,9.49600068 37.8936002,9.59999964 37.8696001,9.69600012 C37.8455999,9.7920006 37.8575998,9.86399988 37.9056001,9.91200012 C37.9536003,9.96000036 38.0295995,9.97200024 38.1336001,9.94800012 C38.2376006,9.924 38.3415995,9.8840004 38.4456001,9.82800012 C38.5496006,9.77199984 38.6455996,9.7160004 38.7336001,9.66000012 C38.8216005,9.60399984 38.8815999,9.5680002 38.9136001,9.55200012 C39.1856014,9.39199932 39.4415989,9.224001 39.6816001,9.04800012 C39.9216013,8.87199924 40.1695988,8.696001 40.4256001,8.52000012 L41.5536001,7.51200012 C41.8256014,6.95199732 42.1135985,6.39600288 42.4176001,5.84400012 C42.7216016,5.29199736 43.0335985,4.74400284 43.3536001,4.20000012 L44.0256001,3.09600012 C44.2496012,2.72799828 44.4895988,2.36000196 44.7456001,1.99200012 C44.9856013,1.65599844 45.2495986,1.30800192 45.5376001,0.94800012 C45.8256015,0.58799832 46.1615981,0.31200108 46.5456001,0.12000012 C46.6576006,0.08799996 46.7655995,0.05600028 46.8696001,0.02400012 C46.9736006,-0.00800004 47.0815995,-0.00800004 47.1936001,0.02400012 C47.3696009,0.05600028 47.4975997,0.11999964 47.5776001,0.21600012 C47.6576005,0.3120006 47.7016,0.42799944 47.7096001,0.56400012 C47.7176001,0.7000008 47.7016003,0.84399936 47.6616001,0.99600012 C47.6215999,1.14800088 47.5696004,1.27999956 47.5056001,1.39200012 C47.2335987,1.85600244 46.9256018,2.29599804 46.5816001,2.71200012 C46.2375983,3.1280022 45.8896018,3.54399804 45.5376001,3.96000012 C44.9935973,4.6160034 44.4456028,5.25199704 43.8936001,5.86800012 C43.3415973,6.4840032 42.7616031,7.07999724 42.1536001,7.65600012 C42.0735997,7.88000124 41.9976004,8.09599908 41.9256001,8.30400012 C41.8535997,8.51200116 41.7776005,8.727999 41.6976001,8.95200012 C41.6655999,9.03200052 41.6296003,9.12799956 41.5896001,9.24000012 C41.5495999,9.35200068 41.5096003,9.47199948 41.4696001,9.60000012 C41.4295999,9.72800076 41.3976002,9.85599948 41.3736001,9.98400012 C41.3495999,10.1120008 41.3456,10.2159997 41.3616001,10.2960001 C41.6496015,10.28 41.9415986,10.2160007 42.2376001,10.1040001 C42.5336015,9.99199956 42.8095988,9.88000068 43.0656001,9.76800012 C43.5136023,9.59199924 43.9655978,9.38000136 44.4216001,9.13200012 C44.8776023,8.88399888 45.313598,8.64800124 45.7296001,8.42400012 C45.7776003,8.39199996 45.8455996,8.37200016 45.9336001,8.36400012 C46.0216005,8.35600008 46.1015997,8.36000004 46.1736001,8.37600012 C46.2456004,8.3920002 46.2896,8.4319998 46.3056001,8.49600012 C46.3216001,8.56000044 46.2976004,8.64799956 46.2336001,8.76000012 C46.1535997,8.88800076 46.0336009,8.97999984 45.8736001,9.03600012 C45.7135993,9.0920004 45.5776006,9.14399988 45.4656001,9.19200012 C45.0175978,9.41600124 44.5696023,9.64799892 44.1216001,9.88800012 C43.6735978,10.1280013 43.2336022,10.3679989 42.8016001,10.6080001 C42.6735994,10.6720004 42.5296009,10.7479997 42.3696001,10.8360001 C42.2095993,10.9240006 42.0416009,11 41.8656001,11.0640001 C41.6895992,11.1280004 41.5176009,11.1600001 41.3496001,11.1600001 C41.1815992,11.1600001 41.0256008,11.1120006 40.8816001,11.0160001 C40.7375993,10.9039996 40.6456003,10.7680009 40.6056001,10.6080001 C40.5655999,10.4479993 40.5575999,10.276001 40.5816001,10.0920001 C40.6056002,9.9079992 40.6455998,9.73200096 40.7016001,9.56400012 C40.7576003,9.39599928 40.8095998,9.24800076 40.8576001,9.12000012 C40.8736001,9.0559998 40.8896,8.9960004 40.9056001,8.94000012 C40.9216001,8.88399984 40.9455999,8.81600052 40.9776001,8.73600012 L39.7776001,9.76800012 C39.6495994,9.89600076 39.5056009,10.0279994 39.3456001,10.1640001 C39.1855993,10.3000008 39.013601,10.4199996 38.8296001,10.5240001 C38.6455991,10.6280006 38.457601,10.7039999 38.2656001,10.7520001 C38.0735991,10.8000004 37.881601,10.8000004 37.6896001,10.7520001 C37.3695985,10.6559996 37.1736004,10.5040012 37.1016001,10.2960001 C37.0295997,10.0879991 37.0375996,9.8560014 37.1256001,9.60000012 C37.2136005,9.34399884 37.3535991,9.08400144 37.5456001,8.82000012 C37.737601,8.5559988 37.9455989,8.31200124 38.1696001,8.08800012 L37.5696001,8.32800012 C37.4095993,8.40800052 37.2176012,8.51599944 36.9936001,8.65200012 C36.7695989,8.7880008 36.5696009,8.86400004 36.3936001,8.88000012 C36.2975996,8.92800036 36.2176004,8.93200032 36.1536001,8.89200012 C36.0895997,8.85199992 36.0456002,8.80000044 36.0216001,8.73600012 C35.9975999,8.6719998 35.9936,8.60400048 36.0096001,8.53200012 C36.0256001,8.45999976 36.0815996,8.40800028 36.1776001,8.37600012 Z M42.9936001,6.02400012 C43.4096021,5.59199796 43.8175981,5.1480024 44.2176001,4.69200012 C44.6176021,4.23599784 45.0015982,3.76800252 45.3696001,3.28800012 C45.5296009,3.063999 45.6895993,2.8440012 45.8496001,2.62800012 C46.0096009,2.41200012 46.1615993,2.18400132 46.3056001,1.94400012 C46.3536003,1.84799964 46.4455994,1.69600116 46.5816001,1.48800012 C46.7176007,1.27999908 46.8015999,1.088001 46.8336001,0.91200012 C46.6095989,0.99200052 46.401601,1.143999 46.2096001,1.36800012 C46.0175991,1.59200124 45.8656006,1.76799948 45.7536001,1.89600012 C45.3855982,2.29600212 45.0416017,2.71199796 44.7216001,3.14400012 C44.4015985,3.57600228 44.0976015,4.0239978 43.8096001,4.48800012 L42.8496001,6.16800012 L42.9936001,6.02400012 Z M46.8445092,8.40000012 C47.0365101,8.30399964 47.2805077,8.18000088 47.5765092,8.02800012 C47.8725106,7.87599936 48.1885075,7.72800084 48.5245092,7.58400012 C48.8605108,7.4399994 49.1845076,7.30400076 49.4965092,7.17600012 C49.8085107,7.04799948 50.0685081,6.94400052 50.2765092,6.86400012 C50.3885097,6.81599988 50.5885077,6.7440006 50.8765092,6.64800012 C51.1645106,6.55199964 51.4685076,6.46400052 51.7885092,6.38400012 C52.1085108,6.30399972 52.4085078,6.24800028 52.6885092,6.21600012 C52.9685106,6.18399996 53.1725085,6.20799972 53.3005092,6.28800012 C53.4925101,6.464001 53.5285098,6.6239994 53.4085092,6.76800012 C53.2885086,6.91200084 53.14051,6.99999996 52.9645092,7.03200012 L51.8845092,7.15200012 C51.660508,7.21600044 51.4725099,7.29199968 51.3205092,7.38000012 C51.1685084,7.46800056 50.9965101,7.57599948 50.8045092,7.70400012 C50.7245088,7.76800044 50.5845102,7.89999912 50.3845092,8.10000012 C50.1845082,8.30000112 49.9885101,8.51599896 49.7965092,8.74800012 C49.6045082,8.98000128 49.4525097,9.20399904 49.3405092,9.42000012 C49.2285086,9.6360012 49.2285086,9.79199964 49.3405092,9.88800012 C49.4365096,9.96800052 49.5925081,9.98400036 49.8085092,9.93600012 C50.0245102,9.88799988 50.244508,9.8160006 50.4685092,9.72000012 C50.6925103,9.62399964 50.9005082,9.52400064 51.0925092,9.42000012 C51.2845101,9.3159996 51.4125088,9.24000036 51.4765092,9.19200012 C51.9405115,8.90399868 52.3165077,8.60000172 52.6045092,8.28000012 C52.7485099,8.11999932 52.9045083,8.09999952 53.0725092,8.22000012 C53.24051,8.34000072 53.2925095,8.50399908 53.2285092,8.71200012 C53.196509,8.82400068 53.1405096,8.91999972 53.0605092,9.00000012 L52.8325092,9.22800012 C52.7605088,9.30000048 52.7005094,9.39999948 52.6525092,9.52800012 C52.5885088,9.64000068 52.572509,9.72399984 52.6045092,9.78000012 C52.6365093,9.8360004 52.6925088,9.87200004 52.7725092,9.88800012 C52.9965103,9.92000028 53.2765075,9.90400044 53.6125092,9.84000012 C53.9485108,9.7759998 54.2965074,9.68800068 54.6565092,9.57600012 C55.016511,9.46399956 55.3725074,9.33200088 55.7245092,9.18000012 C56.0765109,9.02799936 56.3805079,8.88800076 56.6365092,8.76000012 C56.7005095,8.74400004 56.7885086,8.70000048 56.9005092,8.62800012 C57.0125097,8.55599976 57.1285086,8.49600036 57.2485092,8.44800012 C57.3685098,8.39999988 57.4845086,8.37600012 57.5965092,8.37600012 C57.7085097,8.37600012 57.7885089,8.42399964 57.8365092,8.52000012 C57.9005095,8.6160006 57.8965095,8.70399972 57.8245092,8.78400012 C57.7525088,8.86400052 57.6525098,8.93199984 57.5245092,8.98800012 C57.3965085,9.0440004 57.2685098,9.09599988 57.1405092,9.14400012 C57.0125085,9.19200036 56.9165095,9.23199996 56.8525092,9.26400012 C56.5805078,9.39200076 56.3085105,9.51599952 56.0365092,9.63600012 C55.7645078,9.75600072 55.4845106,9.87999948 55.1965092,10.0080001 C55.0045082,10.0880005 54.7965103,10.1839996 54.5725092,10.2960001 C54.348508,10.4080007 54.1165104,10.5039997 53.8765092,10.5840001 C53.636508,10.6640005 53.3925104,10.72 53.1445092,10.7520001 C52.8965079,10.7840003 52.6685102,10.7600005 52.4605092,10.6800001 C52.1885078,10.5679996 52.0285094,10.4120011 51.9805092,10.2120001 C51.9325089,10.0119991 51.9405088,9.80000124 52.0045092,9.57600012 L51.3565092,9.96000012 C51.0845078,10.1200009 50.8005106,10.2839993 50.5045092,10.4520001 C50.2085077,10.620001 49.9005108,10.72 49.5805092,10.7520001 C49.2925077,10.7680002 49.0365103,10.7040008 48.8125092,10.5600001 C48.588508,10.4159994 48.4685092,10.1920016 48.4525092,9.88800012 C48.4525092,9.72799932 48.5165085,9.52400136 48.6445092,9.27600012 C48.7725098,9.02799888 48.9365082,8.77200144 49.1365092,8.50800012 C49.3365102,8.2439988 49.556508,8.00000124 49.7965092,7.77600012 C50.0365104,7.551999 50.2605081,7.38400068 50.4685092,7.27200012 C50.3565086,7.30400028 50.1765104,7.37599956 49.9285092,7.48800012 C49.6805079,7.60000068 49.4005107,7.73599932 49.0885092,7.89600012 C48.7765076,8.05600092 48.4485109,8.21999928 48.1045092,8.38800012 C47.7605074,8.55600096 47.4445106,8.7119994 47.1565092,8.85600012 C47.0765088,8.90400036 46.9965096,8.91600024 46.9165092,8.89200012 C46.8365088,8.868 46.7765094,8.8280004 46.7365092,8.77200012 C46.696509,8.71599984 46.6805091,8.65200048 46.6885092,8.58000012 C46.6965092,8.50799976 46.7485087,8.44800036 46.8445092,8.40000012 Z M58.4714183,8.40000012 C58.8394201,8.19199908 59.2074164,8.000001 59.5754183,7.82400012 L60.6794183,7.29600012 C60.7914188,7.24799988 60.9474173,7.17200064 61.1474183,7.06800012 C61.3474193,6.9639996 61.5594171,6.8640006 61.7834183,6.76800012 C62.0074194,6.67199964 62.2234172,6.60000036 62.4314183,6.55200012 C62.6394193,6.50399988 62.8074176,6.5119998 62.9354183,6.57600012 C63.079419,6.6720006 63.1474183,6.78399948 63.1394183,6.91200012 C63.1314182,7.04000076 63.0834187,7.1759994 62.9954183,7.32000012 C62.9074178,7.46400084 62.8074188,7.59999948 62.6954183,7.72800012 C62.5834177,7.85600076 62.5034185,7.95999972 62.4554183,8.04000012 C62.3754179,8.16800076 62.2994186,8.3039994 62.2274183,8.44800012 C62.1554179,8.59200084 62.0794187,8.7359994 61.9994183,8.88000012 C62.3674201,8.59199868 62.6914169,8.3400012 62.9714183,8.12400012 C63.2514197,7.90799904 63.5034171,7.72000092 63.7274183,7.56000012 C63.9514194,7.39999932 64.1634173,7.26400068 64.3634183,7.15200012 C64.5634193,7.03999956 64.7674172,6.94400052 64.9754183,6.86400012 C65.2154195,6.76799964 65.4474171,6.76399968 65.6714183,6.85200012 C65.8954194,6.94000056 65.9754186,7.14399852 65.9114183,7.46400012 C65.8794181,7.68800124 65.8234187,7.89999912 65.7434183,8.10000012 C65.6634179,8.30000112 65.5674188,8.49599916 65.4554183,8.68800012 C65.80742,8.47999908 66.1594165,8.2680012 66.5114183,8.05200012 C66.86342,7.83599904 67.2234164,7.61600124 67.5914183,7.39200012 C67.8954198,7.19999916 68.2194165,7.00000116 68.5634183,6.79200012 C68.90742,6.58399908 69.2634164,6.45600036 69.6314183,6.40800012 C69.8714195,6.37599996 70.0634175,6.40399968 70.2074183,6.49200012 C70.351419,6.58000056 70.447418,6.69999936 70.4954183,6.85200012 C70.5434185,7.00400088 70.5514184,7.1719992 70.5194183,7.35600012 C70.4874181,7.54000104 70.4234187,7.71199932 70.3274183,7.87200012 C70.1194172,8.2080018 69.9114193,8.52399864 69.7034183,8.82000012 C69.4954172,9.1160016 69.3034191,9.42399852 69.1274183,9.74400012 C69.3834195,9.79200036 69.6834165,9.76000068 70.0274183,9.64800012 C70.37142,9.53599956 70.6474172,9.4320006 70.8554183,9.33600012 C71.0794194,9.25599972 71.2874173,9.17200056 71.4794183,9.08400012 C71.6714192,8.99599968 71.8714172,8.9040006 72.0794183,8.80800012 C72.1434186,8.77599996 72.2194178,8.72800044 72.3074183,8.66400012 C72.3954187,8.5999998 72.4914177,8.5400004 72.5954183,8.48400012 C72.6994188,8.42799984 72.7994178,8.38800024 72.8954183,8.36400012 C72.9914187,8.34 73.0794179,8.34399996 73.1594183,8.37600012 C73.3194185,8.45600052 73.3594187,8.55199956 73.2794183,8.66400012 C73.1994179,8.77600068 73.0754191,8.8839996 72.9074183,8.98800012 C72.7394174,9.09200064 72.5634192,9.18399972 72.3794183,9.26400012 C72.1954173,9.34400052 72.0714186,9.39999996 72.0074183,9.43200012 C71.7834171,9.56000076 71.5594194,9.67199964 71.3354183,9.76800012 L70.6634183,10.0560001 C70.3594167,10.1840008 70.0234201,10.3199994 69.6554183,10.4640001 C69.2874164,10.6080008 68.9434199,10.6080008 68.6234183,10.4640001 C68.4474174,10.3839997 68.3354185,10.2800008 68.2874183,10.1520001 C68.239418,10.0239995 68.2274181,9.8920008 68.2514183,9.75600012 C68.2754184,9.61999944 68.3314178,9.48000084 68.4194183,9.33600012 C68.5074187,9.1919994 68.5994178,9.0720006 68.6954183,8.97600012 C68.7914187,8.86399956 68.9074176,8.74400076 69.0434183,8.61600012 C69.1794189,8.48799948 69.3074177,8.35200084 69.4274183,8.20800012 C69.5474189,8.0639994 69.6434179,7.91600088 69.7154183,7.76400012 C69.7874186,7.61199936 69.8074184,7.448001 69.7754183,7.27200012 C69.6154175,7.19199972 69.4194194,7.19999964 69.1874183,7.29600012 C68.9554171,7.3920006 68.7754189,7.4719998 68.6474183,7.53600012 C68.1674159,7.712001 67.7034205,7.94399868 67.2554183,8.23200012 C66.807416,8.52000156 66.3754203,8.80799868 65.9594183,9.09600012 C65.8954179,9.14400036 65.7834191,9.23599944 65.6234183,9.37200012 C65.4634175,9.5080008 65.2954191,9.63199956 65.1194183,9.74400012 C64.9434174,9.85600068 64.7714191,9.92799996 64.6034183,9.96000012 C64.4354174,9.99200028 64.3194186,9.920001 64.2554183,9.74400012 C64.2234181,9.66399972 64.231418,9.56800068 64.2794183,9.45600012 C64.3274185,9.34399956 64.3914179,9.22800072 64.4714183,9.10800012 C64.5514187,8.98799952 64.6314179,8.87200068 64.7114183,8.76000012 C64.7914187,8.64799956 64.8474181,8.55200052 64.8794183,8.47200012 C64.9114184,8.39199972 64.955418,8.28000084 65.0114183,8.13600012 C65.0674185,7.9919994 65.1114181,7.84800084 65.1434183,7.70400012 C64.7754164,7.81600068 64.4314199,7.9639992 64.1114183,8.14800012 C63.7914167,8.33200104 63.4834197,8.53199904 63.1874183,8.74800012 C62.8914168,8.9640012 62.5994197,9.19599888 62.3114183,9.44400012 C62.0234168,9.69200136 61.7274198,9.927999 61.4234183,10.1520001 C61.3434179,10.2320005 61.2474188,10.2959999 61.1354183,10.3440001 C61.0234177,10.3920004 60.9114188,10.3840004 60.7994183,10.3200001 C60.6554175,10.2559998 60.5754183,10.1800006 60.5594183,10.0920001 C60.5434182,10.0039997 60.559418,9.91600056 60.6074183,9.82800012 C60.6554185,9.73999968 60.7194179,9.65600052 60.7994183,9.57600012 L60.9914183,9.38400012 C61.4394205,8.80799724 61.7994169,8.16800364 62.0714183,7.46400012 C61.7194165,7.54400052 61.3794199,7.65199944 61.0514183,7.78800012 C60.7234166,7.9240008 60.4074198,8.05599948 60.1034183,8.18400012 C59.8794171,8.29600068 59.6554194,8.4039996 59.4314183,8.50800012 C59.2074171,8.61200064 58.9834194,8.7359994 58.7594183,8.88000012 C58.6794179,8.92800036 58.5994187,8.94000024 58.5194183,8.91600012 C58.4394179,8.892 58.3834184,8.8520004 58.3514183,8.79600012 C58.3194181,8.73999984 58.3074182,8.67200052 58.3154183,8.59200012 C58.3234183,8.51199972 58.3754178,8.44800036 58.4714183,8.40000012 Z" id="dam"></path>
        </g>
    </g>
</svg>