<?xml version="1.0" encoding="UTF-8"?>
<svg width="70px" height="17px" viewBox="0 0 70 17" version="1.1" xmlns="http://www.w3.org/2000/svg" xmlns:xlink="http://www.w3.org/1999/xlink">
    <!-- Generator: Sketch 57 (83077) - https://sketch.com -->
    <title>nhi</title>
    <desc>Created with Sketch.</desc>
    <g id="Academic" stroke="none" stroke-width="1" fill="none" fill-rule="evenodd">
        <g id="Group" transform="translate(-0.175249, -0.300781)" fill="#FFFCE6" fill-rule="nonzero">
            <path d="M1.16270939,16.3007812 L0.626659238,16.2703244 C0.542019739,16.2094107 0.457380241,16.148497 0.372740743,16.0571264 C0.288101244,15.9962127 0.259888078,15.9048422 0.231674912,15.8134716 C0.203461746,15.722101 0.17524858,15.6307305 0.17524858,15.5393599 L0.231674912,15.2347914 C0.31631441,14.9911366 0.400953909,14.7474818 0.542019739,14.4733701 C0.654872404,14.2297153 0.767725069,13.9860604 0.908790899,13.7424056 C1.02164356,13.5292076 1.16270939,13.2855528 1.30377523,13.0723549 C1.44484106,12.8591569 1.58590689,12.6155021 1.72697272,12.3413904 C1.81161222,12.2500198 1.89625171,12.1281924 1.98089121,12.006365 C2.06553071,11.8845376 2.15017021,11.7627102 2.23480971,11.6713396 C2.31944921,11.5799691 2.37587554,11.4885985 2.43230187,11.397228 C2.46051504,11.3363142 2.4887282,11.3058574 2.51694137,11.2754005 C2.60158087,11.1535731 2.79907303,11.0926594 3.08120469,11.0926594 C3.27869686,11.0926594 3.41976269,11.1231163 3.50440218,11.18403 C3.56082852,11.2754005 3.58904168,11.3363142 3.58904168,11.3667711 L3.53261535,11.4885985 C3.44797585,11.5799691 3.39154952,11.6713396 3.30691002,11.7627102 C3.22227052,11.8540807 3.16584419,11.9454513 3.10941786,12.0368219 C3.02477836,12.1281924 2.96835203,12.2500198 2.9119257,12.3413904 C2.8272862,12.4632178 2.77085986,12.5850452 2.68622037,12.6764158 C2.60158087,12.7982432 2.51694137,12.9200706 2.43230187,13.0723549 L1.95267805,13.8337762 C1.89625171,13.9860604 1.81161222,14.1078878 1.72697272,14.2297153 C1.61412005,14.4733701 1.50126739,14.7170249 1.41662789,14.9606797 C1.33198839,15.2347914 1.27556206,15.3870757 1.27556206,15.4784462 C1.52948055,15.2652483 1.78339905,15.0215934 2.03731755,14.7474818 L2.5733677,14.2601721 C2.94013886,13.864233 3.30691002,13.4682939 3.67368118,13.1028117 C3.87117334,12.9200706 4.06866551,12.7373295 4.26615767,12.5241315 C4.46364983,12.3413904 4.63292883,12.1586493 4.83042099,11.9759082 C5.02791316,11.793167 5.19719215,11.6104259 5.39468432,11.4581417 C5.73324231,11.18403 6.10001347,10.9099183 6.46678463,10.6358066 L7.05926112,10.3921518 L7.8210166,10.3007812 C8.04672193,10.3312381 8.27242726,10.4226087 8.49813259,10.5139792 C8.63919842,10.6053498 8.80847742,10.8185477 8.94954325,11.0926594 L9.03418275,11.5799691 C9.00596958,11.6713396 9.00596958,11.793167 9.00596958,11.9149944 C8.92133008,12.1281924 8.86490375,12.3718472 8.83669059,12.6155021 L8.46991943,13.5901214 C8.38527993,13.8337762 8.3288536,14.0165173 8.3288536,14.1078878 C8.30064043,14.1992584 8.30064043,14.290629 8.30064043,14.3819995 C8.30064043,14.4733701 8.3288536,14.5647406 8.35706676,14.6561112 L8.52634576,14.7779386 C8.66741159,14.7779386 8.80847742,14.7474818 8.94954325,14.7170249 C9.09060908,14.6865681 9.23167491,14.6561112 9.42916707,14.6256543 C9.68308557,14.5647406 10.1344962,14.4429132 10.783399,14.2297153 L12.3351232,13.6510351 C12.8711733,13.4073802 13.4072235,13.1941823 13.9432737,12.9809843 C14.1971922,12.8591569 14.4228975,12.7373295 14.676816,12.6459589 C14.9307345,12.5545884 15.1564398,12.4327609 15.3821451,12.3413904 C15.9464085,12.0672787 16.3413928,11.8845376 16.5388849,11.793167 C16.7363771,11.7017965 16.9338693,11.6104259 17.1313614,11.4885985 C17.2724273,11.4276848 17.4134931,11.397228 17.6109853,11.397228 C17.9777564,11.397228 18.1752486,11.4885985 18.1752486,11.6408828 C18.1752486,11.7322533 18.1188222,11.793167 18.0059696,11.8540807 L17.9213301,11.8845376 L16.1156875,12.7373295 C15.9181953,12.7982432 15.4385715,13.0114411 14.676816,13.3769234 C14.4228975,13.4987508 14.1407658,13.6205782 13.8586342,13.7119488 C13.322584,13.9251467 12.7583207,14.1383447 12.2222705,14.3819995 C11.968352,14.4733701 11.6862204,14.5647406 11.4323019,14.6561112 C11.1501702,14.7474818 10.8962517,14.8083955 10.6705464,14.899766 C10.4166279,14.9911366 10.1909226,15.0520503 9.96521723,15.0825071 C9.71129874,15.1434208 9.48559341,15.2043345 9.25988808,15.2347914 L8.58277209,15.326162 C8.10314827,15.2957051 7.76459027,15.1738777 7.53888494,15.0215934 C7.42603228,14.9606797 7.31317961,14.8083955 7.20032695,14.5342838 L7.20032695,14.2601721 L7.31317961,13.6510351 C7.36960595,13.5596645 7.42603228,13.4378371 7.45424544,13.3160097 C7.48245861,13.2246391 7.53888494,13.1028117 7.56709811,13.0114411 L7.79280344,12.3413904 C7.8210166,12.2500198 7.87744294,12.1281924 7.9056561,11.9759082 C7.93386927,11.8236239 7.93386927,11.6408828 7.93386927,11.4276848 L7.87744294,11.18403 C7.79280344,11.0317457 7.70816394,10.9099183 7.62352444,10.8490046 L6.86176896,11.3058574 C6.4949978,11.5799691 6.12822664,11.8845376 5.81788181,12.219563 C5.62038965,12.3718472 5.42289748,12.5545884 5.25361849,12.7373295 L2.54515454,15.4479894 C2.4040887,15.6002736 2.26302287,15.722101 2.12195704,15.8439285 C1.78339905,16.1180401 1.47305422,16.2703244 1.16270939,16.3007812 Z M18.5085819,17.3007812 C18.0263124,17.3007812 17.6291493,17.2149227 17.3170926,17.0432055 L17.1752486,16.7856297 L17.2036174,16.2132392 C17.5440429,15.068458 18.2532628,13.5802425 19.3029082,11.7772122 L20.153972,10.3462358 C20.976667,8.91525936 22.5653195,6.4539799 24.976667,2.93377788 C25.7426245,1.81761627 26.2816316,1.07350852 26.5369507,0.644215593 L26.6504259,0.50111795 L26.6504259,0.472498422 C26.7639011,0.358020307 26.9341138,0.30078125 27.1326954,0.30078125 C27.5298585,0.30078125 27.7284401,0.386639836 27.7284401,0.558357008 C27.7284401,0.586976536 27.5014897,0.93041088 27.0192202,1.61727957 C25.3454613,4.0499395 24.3241847,5.56677452 23.9553904,6.16778462 C23.2745394,7.16946812 22.08305,9.08697654 20.3525535,11.9489294 C19.7000713,13.065091 19.0759578,14.2384917 18.5369507,15.4691314 C18.3951067,15.8698048 18.3100004,16.2990977 18.2816316,16.7570102 C18.6787947,16.5566735 19.3880145,16.0129025 20.4376599,15.1256971 C21.6575181,14.0095355 22.6220571,13.1223301 23.3029082,12.4068419 L24.6078727,11.2906802 C24.976667,11.004485 25.3454613,10.7755287 25.7426245,10.575192 C25.9979436,10.517953 26.2816316,10.4893334 26.5653195,10.4607139 L27.0192202,10.575192 C27.3312769,10.7469092 27.5014897,11.061724 27.5298585,11.5196365 C27.5298585,12.2637442 27.3880145,12.9506129 27.1326954,13.6088621 C27.047589,14.038155 26.9908514,14.3529698 26.9908514,14.4960674 C26.9908514,14.6391651 27.1043266,14.6964041 27.3596457,14.6964041 C27.7851777,14.6964041 28.7497167,14.524687 30.2816316,14.1812526 C33.1468798,13.551623 35.1043266,12.8075153 36.1256032,11.9203099 C36.2674472,11.8344513 36.4092911,11.7772122 36.6078727,11.7772122 C36.6929791,11.7772122 36.7780855,11.7772122 36.8915606,11.8058318 C37.0050358,11.8344513 37.0901422,11.8916903 37.118511,11.9203099 C37.1468798,11.9489294 37.1752486,12.0061685 37.1752486,12.034788 C37.1752486,12.1492661 36.8064543,12.4068419 36.0972344,12.8075153 C35.3596457,13.2368082 34.4518443,13.6088621 33.3738301,13.9522964 C31.5865961,14.4960674 29.5440429,14.9253604 27.2461706,15.2401752 C26.7071635,15.2401752 26.3100004,15.1543166 26.08305,15.011219 C25.941206,14.8395018 25.8844684,14.6964041 25.8844684,14.5533065 C25.8844684,14.2098722 25.9695748,13.8091988 26.1114188,13.3226668 C26.1965252,13.0364715 26.2532628,12.8361348 26.2816316,12.6930371 L26.3667379,12.3496028 C26.3951067,12.2351247 26.3951067,12.1206466 26.4234755,12.0061685 C26.4234755,11.6054951 26.3951067,11.3479193 26.3667379,11.2620607 C26.3383691,11.1762021 26.3100004,11.1189631 26.2816316,11.0331045 C26.1397876,11.1189631 25.9695748,11.2334412 25.7993621,11.3765388 C25.6291493,11.5196365 25.4589365,11.6341146 25.260355,11.7772122 C24.5511351,12.3782223 23.8986528,12.9792324 23.2461706,13.6374816 C22.3667379,14.4674479 21.6291493,15.1543166 21.0617734,15.6408486 L20.4092911,16.1846196 C19.7851777,16.7283907 19.1610642,17.1004445 18.5085819,17.3007812 Z M39.0163306,15.3007812 L38.4863221,15.3007812 C38.2352655,15.2404797 37.9842089,15.1500275 37.7331522,15.0595752 L37.6494667,14.9992737 C37.5099908,14.9088215 37.3705149,14.7882184 37.2868293,14.6374647 L37.1752486,14.3058064 C37.1752486,13.9439973 37.1752486,13.7027913 37.2031438,13.5821883 C37.2868293,13.3108315 37.3705149,13.009324 37.4820956,12.7379672 C37.5657811,12.4666104 37.6773619,12.1952536 37.8168378,11.9238968 C38.012104,11.6223893 38.1794751,11.3208818 38.3468462,10.9892235 C38.5421125,10.7178667 38.6536932,10.5369622 38.7094836,10.4465099 C38.7652739,10.3560576 38.8210643,10.2957561 38.8768547,10.2656054 C38.9047498,10.2053039 38.9047498,10.1450024 38.932645,10.1148516 C38.9605402,10.0847008 38.9605402,10.0847008 38.9884354,10.0847008 C39.0721209,9.96409783 39.2673872,9.90379633 39.546339,9.90379633 C39.853186,9.90379633 40.0205571,9.99424859 40.0205571,10.1450024 L39.9926619,10.2656054 L39.4068631,11.170128 C39.2115968,11.4414848 39.0163306,11.7429923 38.8768547,12.0444998 C38.7094836,12.3761581 38.5700077,12.6776657 38.4584269,13.009324 C38.3468462,13.3409823 38.2631607,13.6424898 38.2352655,13.9741481 C38.2352655,14.0646003 38.2352655,14.1852034 38.2631607,14.3058064 C38.2910558,14.4264094 38.3468462,14.5168617 38.4584269,14.6073139 C38.5421125,14.6977662 38.5979028,14.7580677 38.625798,14.7580677 L38.625798,14.7882184 C39.0442258,14.7882184 39.4347583,14.7580677 39.853186,14.6676154 C40.2716138,14.6073139 40.6900415,14.5168617 41.1084692,14.4264094 L42.7263897,14.0344496 C43.2006078,13.8836958 44.4837862,13.5520375 46.6317152,12.9791732 C47.6917321,12.6475149 49.2259671,12.2555551 51.2623154,11.7429923 C52.9360263,11.3208818 54.6097372,10.928922 56.2834481,10.5671129 C57.1481987,10.3862084 57.9850542,10.2354546 58.8498048,10.0847008 C59.7145554,9.93394708 60.5514109,9.81334406 61.4161615,9.6625903 C63.0619772,9.45153502 64.707793,9.330932 66.3536087,9.30078125 C67.4973111,9.330932 68.6410136,9.39123351 69.784716,9.51183653 C70.0357727,9.57213803 70.1752486,9.6625903 70.1752486,9.78319331 C70.1752486,9.81334406 70.1473534,9.84349482 70.1194582,9.87364557 C70.091563,9.93394708 70.0078775,9.96409783 69.8962968,9.99424859 C69.784716,10.0243993 69.6731353,10.0243993 69.5894498,10.0243993 L68.4736425,9.90379633 C67.7762629,9.87364557 67.0509882,9.84349482 66.3536087,9.84349482 C64.7914785,9.87364557 63.2293483,9.99424859 61.6951133,10.1751531 C60.4956205,10.3560576 58.8498048,10.6575652 56.729771,11.049525 C55.8929155,11.2304295 55.0560601,11.411334 54.2470998,11.5922385 C53.4102444,11.8032938 52.6012841,11.9841983 51.7923238,12.1952536 C50.9833635,12.4063089 50.2022985,12.6173642 49.4491285,12.8284194 C48.6959586,13.0394747 47.9427887,13.2203792 47.217514,13.4012838 C46.4922393,13.612339 45.7948597,13.7932436 45.0974802,13.9741481 C43.9258826,14.3058064 42.7542849,14.6073139 41.5547921,14.8786707 C40.6063559,15.1198767 39.7695005,15.2706305 39.0163306,15.3007812 Z M41.9877486,7.109375 L41.8236861,7.109375 C41.6361861,7.109375 41.4955611,7.0625 41.4018111,6.9921875 C41.4018111,6.96875 41.4018111,6.9453125 41.3783736,6.9453125 C41.5189986,6.5234375 41.6830611,6.171875 41.8705611,5.890625 C42.0346236,5.6328125 42.2455611,5.4921875 42.5033736,5.4921875 C42.5736861,5.4921875 42.6439986,5.4921875 42.7377486,5.515625 C42.8080611,5.5390625 42.8783736,5.5859375 42.9252486,5.609375 C42.9486861,5.65625 42.9721236,5.6796875 42.9721236,5.703125 C42.9721236,5.7265625 42.9018111,5.8203125 42.7377486,6.03125 C42.5736861,6.2421875 42.4330611,6.546875 42.2924361,6.921875 C42.2924361,6.9921875 42.1986861,7.0625 41.9877486,7.109375 Z" id="nhi"></path>
        </g>
    </g>
</svg>