<?xml version="1.0" encoding="UTF-8"?>
<svg width="34px" height="11px" viewBox="0 0 34 11" version="1.1" xmlns="http://www.w3.org/2000/svg" xmlns:xlink="http://www.w3.org/1999/xlink">
    <!-- Generator: Sketch 57 (83077) - https://sketch.com -->
    <title>Group 2</title>
    <desc>Created with Sketch.</desc>
    <g id="Academic" stroke="none" stroke-width="1" fill="none" fill-rule="evenodd">
        <g id="Group-2" fill="#FFFCE6" fill-rule="nonzero">
            <path d="M0.181714311,7.92 C0.357715191,7.82399952 0.661712151,7.66000116 1.09371431,7.428 C1.52571647,7.19599884 1.96971203,6.97600104 2.42571431,6.768 C2.88171659,6.55999896 3.30171239,6.4160004 3.68571431,6.336 C4.06971623,6.2559996 4.30971383,6.31999896 4.40571431,6.528 C4.46971463,6.6880008 4.44971483,6.84399924 4.34571431,6.996 C4.24171379,7.14800076 4.16571455,7.28799936 4.11771431,7.416 L3.82971431,8.088 C4.03771535,7.95999936 4.24571327,7.84800048 4.45371431,7.752 L5.07771431,7.464 C5.58971687,7.19199864 6.11771159,6.90400152 6.66171431,6.6 C7.20571703,6.29599848 7.75771151,6.0640008 8.31771431,5.904 C8.52571535,5.85599976 8.70971351,5.8519998 8.86971431,5.892 C9.02971511,5.9320002 9.15371387,6.00399948 9.24171431,6.108 C9.32971475,6.21200052 9.37371431,6.34799916 9.37371431,6.516 C9.37371431,6.68400084 9.30971495,6.86399904 9.18171431,7.056 C9.03771359,7.28000112 8.88171515,7.47999912 8.71371431,7.656 C8.54571347,7.83200088 8.37371519,8.02399896 8.19771431,8.232 C8.16571415,8.28000024 8.10971471,8.3439996 8.02971431,8.424 C7.94971391,8.5040004 7.86571475,8.59599948 7.77771431,8.7 C7.68971387,8.80400052 7.60971467,8.90799948 7.53771431,9.012 C7.46571395,9.11600052 7.42171439,9.2079996 7.40571431,9.288 C7.51771487,9.32000016 7.65771347,9.32000016 7.82571431,9.288 C7.99371515,9.25599984 8.16171347,9.21200028 8.32971431,9.156 C8.49771515,9.09999972 8.65771355,9.04000032 8.80971431,8.976 C8.96171507,8.91199968 9.07771391,8.86400016 9.15771431,8.832 L10.1417143,8.4 C10.2057146,8.36799984 10.2897138,8.32000032 10.3937143,8.256 C10.4977148,8.19199968 10.6057138,8.13200028 10.7177143,8.076 C10.8297149,8.01999972 10.9377138,7.96800024 11.0417143,7.92 C11.1457148,7.87199976 11.229714,7.848 11.2937143,7.848 C11.437715,7.848 11.5097143,7.91999928 11.5097143,8.064 C11.5097143,8.20800072 11.445715,8.3199996 11.3177143,8.4 C11.1737136,8.4800004 11.0217151,8.55599964 10.8617143,8.628 C10.7017135,8.70000036 10.5337152,8.7759996 10.3577143,8.856 C10.1337132,8.98400064 9.91771535,9.09599952 9.70971431,9.192 C9.50171327,9.28800048 9.28571543,9.39199944 9.06171431,9.504 C8.93371367,9.56800032 8.72971571,9.6599994 8.44971431,9.78 C8.16971291,9.9000006 7.88971571,9.98799972 7.60971431,10.044 C7.32971291,10.1000003 7.08571535,10.0920004 6.87771431,10.02 C6.66971327,9.94799964 6.56571431,9.7520016 6.56571431,9.432 C6.56571431,9.2719992 6.60571391,9.12800064 6.68571431,9 C6.76571471,8.87199936 6.85771379,8.7480006 6.96171431,8.628 C7.06571483,8.5079994 7.17771371,8.39200056 7.29771431,8.28 C7.41771491,8.16799944 7.52571383,8.06400048 7.62171431,7.968 C7.71771479,7.8879996 7.87771319,7.72000128 8.10171431,7.464 C8.32571543,7.20799872 8.46971399,6.96800112 8.53371431,6.744 C8.10171215,6.79200024 7.66571651,6.90399912 7.22571431,7.08 C6.78571211,7.25600088 6.38171615,7.43999904 6.01371431,7.632 C5.54971199,7.85600112 5.06971679,8.1079986 4.57371431,8.388 C4.07771183,8.6680014 3.64571615,8.99999808 3.27771431,9.384 C3.19771391,9.44800032 3.11371475,9.48399996 3.02571431,9.492 C2.93771387,9.50000004 2.85371471,9.4840002 2.77371431,9.444 C2.69371391,9.4039998 2.63371451,9.3440004 2.59371431,9.264 C2.55371411,9.1839996 2.54971415,9.08000064 2.58171431,8.952 C2.62971455,8.80799928 2.74971335,8.68000056 2.94171431,8.568 C3.02171471,8.43999936 3.10171391,8.29200084 3.18171431,8.124 C3.26171471,7.95599916 3.31771415,7.85600016 3.34971431,7.824 C3.38171447,7.71199944 3.41371415,7.5960006 3.44571431,7.476 C3.47771447,7.3559994 3.50171423,7.23200064 3.51771431,7.104 C3.34171343,7.15200024 3.16571519,7.20799968 2.98971431,7.272 C2.81371343,7.33600032 2.67771479,7.38399984 2.58171431,7.416 C2.35771319,7.51200048 2.13371543,7.60399956 1.90971431,7.692 C1.68571319,7.78000044 1.46171543,7.87999944 1.23771431,7.992 C1.10971367,8.05600032 0.993714831,8.11999968 0.889714311,8.184 C0.785713791,8.24800032 0.669714951,8.30399976 0.541714311,8.352 C0.445713831,8.40000024 0.353714751,8.41200012 0.265714311,8.388 C0.177713871,8.36399988 0.109714551,8.32800024 0.0617143109,8.28 C0.0137140709,8.23199976 -0.0062857291,8.17200036 0.0017143109,8.1 C0.0097143509,8.02799964 0.0697137509,7.96800024 0.181714311,7.92 Z M12.2646234,7.896 C13.2726284,7.4159976 14.2486187,6.8960028 15.1926234,6.336 C16.1366281,5.7759972 16.95262,5.16000336 17.6406234,4.488 L18.5046234,2.928 C18.7766248,2.46399768 19.0726218,1.98800244 19.3926234,1.5 C19.712625,1.01199756 20.0966212,0.61600152 20.5446234,0.312 C20.656624,0.24799968 20.8166224,0.18000036 21.0246234,0.108 C21.2326244,0.03599964 21.4286225,0 21.6126234,0 C21.7966243,0 21.9406229,0.05199948 22.0446234,0.156 C22.1486239,0.26000052 22.1526239,0.45599856 22.0566234,0.744 C21.976623,0.96800112 21.8606242,1.179999 21.7086234,1.38 C21.5566226,1.580001 21.3886243,1.77599904 21.2046234,1.968 C21.0206225,2.16000096 20.8326244,2.33999916 20.6406234,2.508 C20.4486224,2.67600084 20.2806241,2.8399992 20.1366234,3 C19.8006217,3.3200016 19.4566252,3.6399984 19.1046234,3.96 C18.7526216,4.2800016 18.3926252,4.58399856 18.0246234,4.872 C17.9286229,5.04800088 17.8366238,5.21999916 17.7486234,5.388 C17.660623,5.55600084 17.5766238,5.72799912 17.4966234,5.904 L17.0646234,6.72 C16.9206227,6.99200136 16.7606243,7.26399864 16.5846234,7.536 C17.0806259,7.24799856 17.5886208,6.98000124 18.1086234,6.732 C18.628626,6.48399876 19.1446208,6.24800112 19.6566234,6.024 C19.8326243,5.92799952 20.0366222,5.84800032 20.2686234,5.784 C20.5006246,5.71999968 20.7286223,5.71999968 20.9526234,5.784 C21.1926246,5.8640004 21.3446231,6.01599888 21.4086234,6.24 C21.4726237,6.46400112 21.440624,6.68799888 21.3126234,6.912 C21.2166229,7.10400096 21.0926242,7.29599904 20.9406234,7.488 C20.7886226,7.68000096 20.6326242,7.875999 20.4726234,8.076 C20.3126226,8.276001 20.176624,8.48399892 20.0646234,8.7 C19.9526228,8.91600108 19.8966234,9.12799896 19.8966234,9.336 C20.3126255,9.28799976 20.7486211,9.164001 21.2046234,8.964 C21.6606257,8.763999 22.0726216,8.56800096 22.4406234,8.376 C22.568624,8.31199968 22.7166226,8.22800052 22.8846234,8.124 C23.0526242,8.01999948 23.2006228,7.94400024 23.3286234,7.896 C23.4086238,7.84799976 23.484623,7.83999984 23.5566234,7.872 C23.6286238,7.90400016 23.6846232,7.94799972 23.7246234,8.004 C23.7646236,8.06000028 23.7806234,8.1279996 23.7726234,8.208 C23.7646234,8.2880004 23.7126239,8.35199976 23.6166234,8.4 C23.2646216,8.60800104 22.9046252,8.79599916 22.5366234,8.964 C22.1686216,9.13200084 21.8086252,9.31999896 21.4566234,9.528 C21.3126227,9.6080004 21.1446244,9.70399944 20.9526234,9.816 C20.7606224,9.92800056 20.5646244,10.0159997 20.3646234,10.08 C20.1646224,10.1440003 19.9646244,10.1680001 19.7646234,10.152 C19.5646224,10.1359999 19.3926241,10.0400009 19.2486234,9.864 C19.1366228,9.71999928 19.0846234,9.5680008 19.0926234,9.408 C19.1006234,9.2479992 19.140623,9.09200076 19.2126234,8.94 C19.2846238,8.78799924 19.3726229,8.64000072 19.4766234,8.496 C19.5806239,8.35199928 19.672623,8.22400056 19.7526234,8.112 C19.9286243,7.88799888 20.1006226,7.64800128 20.2686234,7.392 C20.4366242,7.13599872 20.5366232,6.87200136 20.5686234,6.6 C20.4406228,6.58399992 20.3006242,6.59199984 20.1486234,6.624 C19.9966226,6.65600016 19.8406242,6.69999972 19.6806234,6.756 C19.5206226,6.81200028 19.3646242,6.87199968 19.2126234,6.936 C19.0606226,7 18.928624,7.04799984 18.8166234,7.08 C18.4646216,7.2400008 18.124625,7.41199908 17.7966234,7.596 C17.4686218,7.78000092 17.144625,7.97599896 16.8246234,8.184 C16.3126208,8.55200184 15.9526244,8.82799908 15.7446234,9.012 C15.5366224,9.19600092 15.3846239,9.3279996 15.2886234,9.408 C15.208623,9.4880004 15.1166239,9.54399984 15.0126234,9.576 C14.9086229,9.60800016 14.792624,9.57600048 14.6646234,9.48 C14.5366228,9.36799944 14.4806233,9.26000052 14.4966234,9.156 C14.5126235,9.05199948 14.560623,8.95200048 14.6406234,8.856 C15.1046257,8.3759976 15.5326214,7.86400272 15.9246234,7.32 C16.3166254,6.77599728 16.6726218,6.21600288 16.9926234,5.64 C16.5606212,5.97600168 16.1246256,6.28799856 15.6846234,6.576 C15.2446212,6.86400144 14.8006256,7.14399864 14.3526234,7.416 C14.080622,7.59200088 13.8126247,7.75199928 13.5486234,7.896 C13.2846221,8.04000072 13.0166248,8.18399928 12.7446234,8.328 C12.664623,8.36000016 12.5806238,8.3959998 12.4926234,8.436 C12.404623,8.4760002 12.3206238,8.46400032 12.2406234,8.4 C12.160623,8.33599968 12.1206234,8.24800056 12.1206234,8.136 C12.1206234,8.02399944 12.1686229,7.94400024 12.2646234,7.896 Z M19.8726234,2.448 C20.0806244,2.23999896 20.2926234,2.0160012 20.5086234,1.776 C20.7246245,1.5359988 20.9046227,1.27200144 21.0486234,0.984 C20.6806216,1.16000088 20.3526248,1.40399844 20.0646234,1.716 C19.776622,2.02800156 19.5206245,2.3439984 19.2966234,2.664 L18.7926234,3.504 C18.9686243,3.32799912 19.1486225,3.15200088 19.3326234,2.976 C19.5166243,2.79999912 19.6966225,2.62400088 19.8726234,2.448 Z M26.7715325,6.744 C26.8355328,6.71199984 26.9835313,6.64800048 27.2155325,6.552 C27.4475337,6.45599952 27.6755314,6.38400024 27.8995325,6.336 C28.1235336,6.28799976 28.3155317,6.2839998 28.4755325,6.324 C28.6355333,6.3640002 28.6915327,6.51199872 28.6435325,6.768 C28.6115323,6.91200072 28.543533,7.05599928 28.4395325,7.2 C28.335532,7.34400072 28.2595327,7.48799928 28.2115325,7.632 C28.115532,7.84000104 28.0235329,8.09599848 27.9355325,8.4 C27.8475321,8.70400152 27.8755318,8.95199904 28.0195325,9.144 C28.2915339,9.17600016 28.5915309,9.14400048 28.9195325,9.048 C29.2475341,8.95199952 29.5475311,8.85600048 29.8195325,8.76 C29.8995329,8.72799984 30.0515314,8.64800064 30.2755325,8.52 C30.4995336,8.39199936 30.7355313,8.2680006 30.9835325,8.148 C31.2315337,8.0279994 31.4595315,7.94000028 31.6675325,7.884 C31.8755335,7.82799972 32.0035323,7.84799952 32.0515325,7.944 C32.1155328,8.05600056 32.0755332,8.17599936 31.9315325,8.304 C31.7875318,8.43200064 31.6075336,8.54799948 31.3915325,8.652 C31.1755314,8.75600052 30.9555336,8.85199956 30.7315325,8.94 C30.5075314,9.02800044 30.3635328,9.08799984 30.2995325,9.12 C29.9475307,9.29600088 29.5915343,9.46799916 29.2315325,9.636 C28.8715307,9.80400084 28.4995344,9.91999968 28.1155325,9.984 C27.7795308,10.0320002 27.5475331,9.96000096 27.4195325,9.768 C27.2915319,9.57599904 27.2275325,9.33200148 27.2275325,9.036 C27.2275325,8.73999852 27.2715321,8.42000172 27.3595325,8.076 C27.4475329,7.73199828 27.539532,7.41600144 27.6355325,7.128 C27.2675307,7.27200072 26.9075343,7.4039994 26.5555325,7.524 C26.2035307,7.6440006 25.8595342,7.7839992 25.5235325,7.944 C25.2355311,8.07200064 24.9475339,8.2159992 24.6595325,8.376 C24.4835316,8.42400024 24.343533,8.38000068 24.2395325,8.244 C24.135532,8.10799932 24.1795315,7.99200048 24.3715325,7.896 L26.7715325,6.744 Z M29.5795325,1.896 C29.6595329,1.68799896 29.7835317,1.50800076 29.9515325,1.356 C30.1195333,1.20399924 30.3075315,1.08000048 30.5155325,0.984 C30.7235335,0.88799952 30.9435313,0.81200028 31.1755325,0.756 C31.4075337,0.69999972 31.6275315,0.65600016 31.8355325,0.624 C32.4115354,0.59199984 32.9795297,0.6159996 33.5395325,0.696 C33.635533,0.696 33.7435319,0.71199984 33.8635325,0.744 C33.9835331,0.77600016 34.0355326,0.86399928 34.0195325,1.008 C34.0035324,1.0880004 33.9635328,1.15599972 33.8995325,1.212 C33.8355322,1.26800028 33.7635329,1.28800008 33.6835325,1.272 C33.2195302,1.17599952 32.735535,1.13999988 32.2315325,1.164 C31.72753,1.18800012 31.2755345,1.33599864 30.8755325,1.608 C30.7155317,1.70400048 30.6035328,1.8319992 30.5395325,1.992 C30.4755322,2.1520008 30.3795331,2.27999952 30.2515325,2.376 C30.0915317,2.50400064 29.9235334,2.50400064 29.7475325,2.376 C29.5715316,2.24799936 29.5155322,2.08800096 29.5795325,1.896 Z" id="nhi"></path>
        </g>
    </g>
</svg>