<?xml version="1.0" encoding="UTF-8"?>
<svg width="199px" height="45px" viewBox="0 0 199 45" version="1.1" xmlns="http://www.w3.org/2000/svg" xmlns:xlink="http://www.w3.org/1999/xlink">
    <!-- Generator: Sketch 57 (83077) - https://sketch.com -->
    <title>NhiDam</title>
    <desc>Created with Sketch.</desc>
    <g id="Academic" stroke="none" stroke-width="1" fill="none" fill-rule="evenodd">
        <path d="M2.21697443,44.8046875 C1.78728693,44.8046875 1.39666369,44.5156279 1.04509943,43.9375 C0.873223572,43.6093734 0.787286932,43.3007827 0.787286932,43.0117188 C0.787286932,42.8789056 0.799005565,42.757813 0.822443182,42.6484375 C0.931818729,42.2343729 1.1349417,41.847658 1.43181818,41.4882812 C1.65056928,41.2304675 2.06853385,40.7929718 2.68572443,40.1757812 C4.04510623,38.7460866 5.36149931,37.2461016 6.63494318,35.6757812 C8.90057951,32.9413926 14.576304,26.5859874 23.6622869,16.609375 C24.3107277,15.8906214 24.9630649,15.1875034 25.6193182,14.5 C26.5021351,13.5703079 27.3693139,12.628911 28.2208807,11.6757812 C29.1036976,10.6445261 29.9122833,9.57031809 30.6466619,8.453125 L31.6427557,7.046875 C32.2208836,6.27343363 32.7091599,5.84375043 33.1075994,5.7578125 C33.5060389,5.67187457 33.7911923,5.62890625 33.9630682,5.62890625 C34.4943208,5.62890625 35.0919711,5.78515469 35.7560369,6.09765625 C36.4201028,6.41015781 36.7911928,6.71874848 36.8693182,7.0234375 C36.9474436,7.32812652 36.9865057,7.55859297 36.9865057,7.71484375 C36.9865057,8.2851591 36.6544778,9.12108824 35.9904119,10.2226562 C35.8497862,10.4414073 35.4279154,11.2148371 34.7247869,12.5429688 C32.8810277,15.9023605 31.3654179,18.7460821 30.1779119,21.0742188 C28.9982185,23.4023554 27.9435416,25.7343633 27.0138494,28.0703125 C26.6779103,28.9218793 26.3732258,29.8554637 26.0997869,30.8710938 C25.8341606,31.8945364 25.693537,32.6718723 25.6779119,33.203125 C25.6700994,33.5625018 25.662287,33.8085931 25.6544744,33.9414062 L25.6544744,34.046875 C25.6544744,35.0312549 25.8654098,35.9374959 26.2872869,36.765625 C26.8419772,37.6796921 27.3849405,38.1757809 27.9161932,38.2539062 C28.4474458,38.3320316 28.8107235,38.3710938 29.0060369,38.3710938 C30.5060444,38.3710938 32.6857101,37.1484497 35.5450994,34.703125 C40.7091878,30.2812279 45.8458551,24.468786 50.9552557,17.265625 C52.6583892,14.8281128 54.1583742,12.2773571 55.4552557,9.61328125 C56.2911974,8.0038982 56.7130681,6.62109953 56.7208807,5.46484375 C56.7208807,4.55858922 56.4982267,3.5156309 56.0529119,2.3359375 C55.7716605,1.60937137 55.6310369,1.05468941 55.6310369,0.671875 C55.6310369,0.578124531 55.6349431,0.48828168 55.6427557,0.40234375 C55.6818184,0.167967578 55.8302544,0.05078125 56.0880682,0.05078125 C56.1505685,0.05078125 56.2130679,0.0585936719 56.2755682,0.07421875 L56.3107244,0.07421875 C57.029478,0.464845703 57.7208774,1.12890156 58.3849432,2.06640625 C59.1740096,3.16797426 59.5685369,4.18749531 59.5685369,5.125 C59.5685369,7.35938617 58.7247954,10.0351407 57.0372869,13.1523438 C55.8185308,15.402355 54.1701098,17.9687356 52.0919744,20.8515625 C50.0919644,23.6406389 47.8888615,26.4062363 45.4825994,29.1484375 C40.2091356,35.1484675 35.8458979,38.8828052 32.3927557,40.3515625 C31.3068128,40.8046898 30.4943209,41.0390624 29.9552557,41.0546875 L29.1115057,41.0546875 C28.0490004,41.0546875 27.0451042,40.7265658 26.0997869,40.0703125 C25.1388446,39.3203088 24.3888521,38.398443 23.8497869,37.3046875 C23.1154083,35.8359302 22.7443182,34.7304725 22.7365057,33.9882812 L22.7130682,32.8046875 C22.7130682,30.7265521 23.3263433,28.3203262 24.5529119,25.5859375 C25.568542,23.3124886 26.5607196,21.3437583 27.5294744,19.6796875 C28.3732287,18.2734305 29.1075963,16.8554759 29.7325994,15.4257812 C29.8654126,15.0820295 29.9318182,14.8476569 29.9318182,14.7226563 C29.9318182,14.6367183 29.9044747,14.59375 29.8497869,14.59375 C29.6310358,14.59375 28.763857,15.5038971 27.2482244,17.3242188 C26.0841561,18.7304758 23.4552762,21.660134 19.3615057,26.1132812 C15.5489866,30.2383019 11.8263676,34.4218538 8.19353693,38.6640625 C7.63103412,39.3281283 7.07244596,39.9999966 6.51775568,40.6796875 C4.80680963,42.8359483 3.68182088,44.0976544 3.14275568,44.4648438 C2.82244158,44.6914074 2.51385092,44.8046875 2.21697443,44.8046875 Z M49.0930398,37.046875 L48.9172585,37.0585938 C48.4641313,37.0664063 48.0071046,37.0078131 47.5461648,36.8828125 C46.7258482,36.6328113 46.3039774,36.1953156 46.2805398,35.5703125 C46.2649147,35.0078097 46.6203799,34.2929731 47.346946,33.4257812 C47.6594476,33.0507794 47.9797569,32.691408 48.3078835,32.3476562 C48.4719468,32.1679679 48.6242891,32.003907 48.7649148,31.8554687 C50.9368006,29.4413942 53.925052,26.3242379 57.7297585,22.5039062 L58.7492898,21.484375 C59.1242916,21.1093731 59.5071003,20.7421893 59.8977273,20.3828125 C60.2180414,20.085936 60.5383507,19.7851578 60.8586648,19.4804688 C61.0696033,19.2695302 61.2844449,19.0742196 61.503196,18.8945312 C62.096949,18.3710911 62.6828806,17.8515651 63.2610085,17.3359375 L63.471946,17.1484375 C64.5110137,16.1953077 65.5969404,15.2578171 66.7297585,14.3359375 L66.9055398,14.21875 C68.6711736,12.7890554 70.401625,11.4804747 72.096946,10.2929687 C75.6282137,7.80858133 78.1906881,6.53906277 79.784446,6.484375 C80.1594479,6.47656246 80.4836634,6.53124941 80.7571023,6.6484375 C81.4367932,7.04687699 81.7844459,7.5156223 81.800071,8.0546875 C81.8235086,8.64844047 81.5539801,9.26952801 80.9914773,9.91796875 C79.3742817,11.6445399 76.6086843,13.8671739 72.6946023,16.5859375 C71.7258474,17.2656284 70.7571071,17.9726526 69.7883523,18.7070312 C65.7570821,21.8007967 62.5461767,24.0742115 60.1555398,25.5273437 C57.6633398,27.0273513 55.7922648,28.3632754 54.5422585,29.5351562 C53.8625676,30.1757845 53.4914776,30.648436 53.4289773,30.953125 C53.4289773,30.9843752 53.4524145,31.0039062 53.4992898,31.0117187 C53.7649161,31.0039062 54.9445918,30.222664 57.0383523,28.6679687 C60.1321177,26.5585832 62.5930306,25.1875032 64.4211648,24.5546875 C65.5930456,24.1484355 66.6125667,23.9296877 67.4797585,23.8984375 C67.9406983,23.8828124 68.3938188,23.9101559 68.8391335,23.9804687 C69.2766357,24.0820318 69.6360071,24.3242168 69.9172585,24.7070312 C70.2610102,25.1757836 70.4406959,25.6601538 70.456321,26.1601562 C70.4797586,26.7304716 70.3742909,27.2773411 70.1399148,27.8007812 C69.8664759,28.4101593 69.5422604,28.9999971 69.1672585,29.5703125 C68.7610065,30.171878 68.4406972,30.7656221 68.206321,31.3515625 C68.1281956,31.5312509 68.0891335,31.6914055 68.0891335,31.8320312 C68.0969461,31.9335943 68.1477268,32.0273433 68.2414773,32.1132812 C68.2883525,32.1289063 68.3469457,32.1367188 68.4172585,32.1367188 C68.9719488,32.1132811 70.3703723,31.4609439 72.612571,30.1796875 L73.2571023,29.828125 C74.2883574,29.2421846 75.0266313,28.9414063 75.471946,28.9257812 C75.7063222,28.9179687 75.8274147,29.015624 75.8352273,29.21875 C75.8508524,29.4609387 75.639917,29.8398412 75.2024148,30.3554687 C74.6633496,30.9804719 74.225854,31.4179675 73.8899148,31.6679687 C73.4602251,32.0585957 72.8860121,32.4999975 72.1672585,32.9921875 C70.4719375,34.1640684 69.1047637,34.7695311 68.065696,34.8085938 C67.1828791,34.8164063 66.4172618,34.5000032 65.768821,33.859375 C65.362569,33.3749976 65.1477274,32.8593777 65.1242898,32.3125 C65.1008522,31.6406216 65.3156938,30.9648471 65.768821,30.2851562 C66.2844486,29.5351525 66.7297566,28.7890662 67.1047585,28.046875 C67.401635,27.4609346 67.5422586,27.0351576 67.5266335,26.7695312 C67.518821,26.51953 67.3938222,26.3984375 67.1516335,26.40625 C66.5344429,26.4296876 65.3821107,26.9140578 63.6946023,27.859375 L63.237571,28.09375 C59.4641147,29.9687594 55.7336832,32.4140474 52.0461648,35.4296875 C51.6242877,35.8046894 51.167261,36.1406235 50.675071,36.4375 C50.1828811,36.7343765 49.6555426,36.9374995 49.0930398,37.046875 Z M65.2649148,19 C65.3742903,19 65.8781915,18.6953155 66.7766335,18.0859375 C69.1516454,16.4374918 71.292249,14.8359453 73.1985085,13.28125 C74.3391392,12.3515579 74.9055398,11.8125007 74.8978851,11.6640625 C74.8978851,11.6249998 74.87429,11.609375 74.8274148,11.6171875 C74.3430374,11.6406251 72.6633666,12.8007698 69.7883523,15.0976562 C66.7570871,17.5351684 65.2414773,18.8320305 65.2414773,18.9882812 C65.2414773,18.9960938 65.2434304,19 65.2473366,19 C65.2512429,19 65.2571022,19 65.2649148,19 Z M76.9378551,36.578125 C75.3675348,36.578125 74.2933268,35.8437573 73.7151989,34.375 C73.5198854,33.8749975 73.4222301,33.3984398 73.4222301,32.9453125 C73.4222301,32.5937482 73.4769171,32.2539079 73.5862926,31.9257812 C73.8128562,31.2617154 74.160509,30.6328155 74.6292614,30.0390625 C75.0042632,29.5703102 75.6136321,28.8867232 76.4573864,27.9882812 C77.8558309,26.4023358 78.9808196,25.5234384 79.8323864,25.3515625 C80.2308259,25.3906252 80.6214469,25.5820295 81.0042614,25.9257812 C81.4105134,26.3007831 81.6136364,26.6953104 81.6136364,27.109375 C81.6136364,27.3437512 81.5198873,27.5742176 81.3323864,27.8007812 C81.0433224,28.0898452 80.5862957,28.4882787 79.9612926,28.9960938 C77.5237804,31.0273539 76.3050426,32.4648395 76.3050426,33.3085938 L76.3167614,33.4726562 C76.4495745,33.7226575 76.7191031,33.8476562 77.1253551,33.8476562 C77.8206711,33.8476562 78.7776928,33.601565 79.9964489,33.109375 L80.1136364,33.0742188 C81.5823937,32.4804658 83.0237855,31.8164099 84.4378551,31.0820312 C85.9613002,30.2851523 87.5042536,29.5859405 89.0667614,28.984375 C89.2386372,28.9218747 89.3753546,28.890625 89.4769176,28.890625 C89.7112938,28.890625 89.844105,29.0820293 89.8753551,29.4648438 C89.8675426,29.9414086 89.6448886,30.3710918 89.2073864,30.7539062 C88.7698842,31.1367207 88.3323886,31.4648424 87.8948864,31.7382812 L87.7308239,31.8554688 C85.96519,32.9726618 84.1136461,33.9999953 82.1761364,34.9375 C80.0589383,36.0312555 78.312862,36.578125 76.9378551,36.578125 Z M84.1448864,21.9882812 C83.3870701,21.9882812 82.8089509,21.5546918 82.4105114,20.6875 C82.3011358,20.4687489 82.2464489,20.2500011 82.2464489,20.03125 C82.2464489,19.8203114 82.3011358,19.6093761 82.4105114,19.3984375 C82.5667621,19.2421867 82.7210575,19.1484377 82.873402,19.1171875 C83.0257465,19.0859373 83.1526984,19.0742187 83.2542614,19.0820312 L83.2894176,19.0820312 C83.6409819,19.0820312 84.0667589,19.1757803 84.5667614,19.3632812 C85.7698924,19.8320336 86.3714489,20.2851541 86.3714489,20.7226562 C86.3714489,21.1289083 85.910516,21.4999983 84.9886364,21.8359375 C84.6839473,21.9375005 84.4027002,21.9882812 84.1448864,21.9882812 Z M103.283736,33.71875 C102.979047,33.71875 102.596238,33.4179718 102.135298,32.8164062 C101.783734,32.3789041 101.607955,31.9804705 101.607955,31.6210938 C101.607955,31.2226543 101.732953,30.847658 101.982955,30.4960938 C102.240768,30.152342 102.592327,29.7460961 103.037642,29.2773438 C106.732973,25.2773237 110.459498,21.4453308 114.21733,17.78125 C114.779832,17.2109346 115.307171,16.6289092 115.799361,16.0351562 C116.705615,14.9179632 117.68998,13.9257856 118.752486,13.0585938 C119.705616,12.3007775 120.490764,11.921875 121.107955,11.921875 C121.24858,11.921875 121.385298,11.9414061 121.518111,11.9804688 C122.080614,12.2148449 122.416548,12.4804673 122.525923,12.7773438 C122.627486,13.0820328 122.678267,13.3046868 122.678267,13.4453125 C122.678267,13.7734391 122.545456,14.1132795 122.27983,14.4648438 C121.85014,14.9492212 121.318895,15.4335913 120.68608,15.9179688 C120.373578,16.16797 120.088425,16.4101551 119.830611,16.6445312 C116.13528,19.9414227 112.592346,23.3945132 109.201705,27.0039062 C107.717322,28.5976642 106.45171,30.1093679 105.40483,31.5390625 C105.06889,31.9843772 104.72905,32.4257791 104.385298,32.8632812 C103.955609,33.4335966 103.588425,33.71875 103.283736,33.71875 Z M108.088423,42.3320312 C107.588421,42.3320312 107.092332,42.3007816 106.600142,42.2382812 C104.772008,41.98828 103.658738,41.042977 103.260298,39.4023438 C103.205611,39.160155 103.178267,38.91797 103.178267,38.6757812 C103.178267,38.3085919 103.240766,37.9453143 103.365767,37.5859375 C103.568893,37.0078096 103.838422,36.5273457 104.174361,36.1445312 C104.518113,35.7539043 104.775922,35.5507813 104.947798,35.5351562 C105.041549,35.5273437 105.111861,35.5195313 105.158736,35.5117188 L105.229048,35.5117188 C105.502487,35.5117188 105.689985,35.7265604 105.791548,36.15625 C105.799361,36.2265629 105.803267,36.3046871 105.803267,36.390625 C105.803267,36.6796889 105.689987,37.0742163 105.463423,37.5742188 C105.252485,38.0039084 105.147017,38.3593736 105.147017,38.640625 C105.147017,38.9296889 105.346234,39.1835927 105.744673,39.4023438 C106.1353,39.5664071 106.604046,39.6484375 107.150923,39.6484375 C107.619676,39.6484375 108.15092,39.5898443 108.744673,39.4726562 C110.893122,39.0742168 113.209505,38.3398491 115.693892,37.2695312 C119.467348,35.628898 123.193874,33.6328243 126.87358,31.28125 C131.592353,28.2656099 135.885279,25.0429859 139.752486,21.6132812 C142.244686,19.4023327 144.170448,17.2617291 145.52983,15.1914062 C146.311083,14.0039003 146.783735,13.0273476 146.947798,12.2617188 C147.104049,11.4960899 147.182173,10.9453142 147.182173,10.609375 C147.182173,9.83593363 146.994675,9.09375355 146.619673,8.3828125 C146.252484,7.78124699 145.74077,7.26562715 145.084517,6.8359375 C144.420451,6.41406039 143.756395,6.0976573 143.09233,5.88671875 C142.131387,5.58202973 141.244677,5.39843781 140.432173,5.3359375 C139.627482,5.27343719 138.936082,5.2421875 138.357955,5.2421875 C137.904827,5.2421875 137.455613,5.25781234 137.010298,5.2890625 C134.611849,5.47656344 132.252497,5.88671559 129.932173,6.51953125 C126.119654,7.56641148 122.350161,8.964835 118.62358,10.7148438 C114.896998,12.472665 111.381409,14.4374891 108.076705,16.609375 C107.553264,16.9453142 107.162643,17.2773421 106.90483,17.6054688 C106.639203,17.9414079 106.432174,18.4023408 106.283736,18.9882812 C106.14311,19.4882837 105.986862,19.7539061 105.814986,19.7851562 C105.635297,19.8242189 105.522017,19.84375 105.475142,19.84375 C105.209516,19.84375 104.904831,19.714845 104.56108,19.4570312 C103.842326,18.9179661 103.482955,18.3046909 103.482955,17.6171875 C103.482955,17.2656232 103.604047,16.9140643 103.846236,16.5625 C104.486864,15.7499959 105.807163,14.7460997 107.807173,13.5507812 C110.580625,11.8007725 113.529814,10.1718825 116.65483,8.6640625 C123.615802,5.29685816 130.037613,3.35156512 135.920455,2.828125 C136.451707,2.7890623 136.990764,2.76953125 137.537642,2.76953125 C138.615772,2.76953125 139.709511,2.84765547 140.818892,3.00390625 C144.568911,3.52734637 147.225134,5.19139223 148.787642,7.99609375 C149.311082,8.98047367 149.572798,10.0117134 149.572798,11.0898438 C149.572798,11.2304695 149.557173,11.5156229 149.525923,11.9453125 C148.77592,17.242214 143.666596,23.242154 134.197798,29.9453125 C129.361837,33.3984548 124.256419,36.3867061 118.881392,38.9101562 C115.600126,40.5117268 113.037651,41.5195292 111.193892,41.9335938 C110.029824,42.1992201 108.994678,42.3320312 108.088423,42.3320312 Z M144.276989,31.3867188 C144.433239,31.3867188 144.663706,31.3203132 144.968395,31.1875 C146.273089,30.593747 147.585576,29.8867229 148.905895,29.0664062 C150.499653,28.1835893 151.29652,27.6328136 151.29652,27.4140625 C151.280895,27.3359371 151.194958,27.296875 151.038707,27.296875 C150.327766,27.296875 149.038717,27.8554632 147.17152,28.9726562 C146.046514,29.6523471 145.155898,30.2656223 144.499645,30.8125 C144.257456,31.0390636 144.136364,31.1953121 144.136364,31.28125 C144.136364,31.3515629 144.183238,31.3867188 144.276989,31.3867188 Z M142.472301,34.7382812 C141.714485,34.7382812 141.112928,34.4453154 140.667614,33.859375 C140.284799,33.2812471 140.093395,32.7460962 140.093395,32.2539062 C140.093395,31.5351527 140.925418,30.4570384 142.589489,29.0195312 C143.636369,28.1210893 144.73792,27.2851601 145.894176,26.5117188 C147.050432,25.7460899 148.030891,25.2070328 148.835582,24.8945312 C149.562149,24.5976548 150.245735,24.4492188 150.886364,24.4492188 C151.636367,24.4492188 152.304329,24.8398398 152.89027,25.6210938 C153.179334,26.0507834 153.433238,26.265625 153.651989,26.265625 C153.769177,26.265625 153.901988,26.2187505 154.050426,26.125 C154.261365,25.9453116 154.491831,25.7148452 154.741832,25.4335938 C154.921521,25.2226552 155.093395,25.0390633 155.257457,24.8828125 C155.687147,24.4687479 156.019175,24.2421877 156.253551,24.203125 C156.487927,24.1640623 156.644176,24.1445312 156.722301,24.1445312 C157.191053,24.1445312 157.702767,24.3203107 158.257457,24.671875 C158.280895,24.6796875 158.300426,24.6914062 158.316051,24.7070312 C158.675428,24.9804701 158.855114,25.2460925 158.855114,25.5039062 C158.855114,25.5976567 158.831676,25.6874996 158.784801,25.7734375 C158.612925,26.1171892 158.327772,26.4492171 157.929332,26.7695312 C157.546518,27.0976579 157.191053,27.3867175 156.862926,27.6367188 C156.839489,27.6601564 156.816051,27.6796874 156.792614,27.6953125 C156.323861,28.0312517 155.890272,28.3906231 155.491832,28.7734375 C155.08558,29.1562519 154.683241,29.6835904 154.284801,30.3554688 C154.050425,30.7617208 153.933239,31.0781239 153.933239,31.3046875 C153.933239,31.3750004 153.944957,31.4374997 153.968395,31.4921875 C154.069958,31.6718759 154.261362,31.7617188 154.542614,31.7617188 C154.886365,31.7617188 155.300424,31.6875007 155.784801,31.5390625 C156.878557,31.1953108 158.026983,30.7031282 159.230114,30.0625 C160.066055,29.6015602 160.913703,29.2109391 161.773082,28.890625 C162.179334,28.7343742 162.550424,28.65625 162.886364,28.65625 C163.425429,28.65625 163.706676,28.9101537 163.730114,29.4179688 C163.722301,29.8398459 163.417617,30.2968725 162.816051,30.7890625 C162.222298,31.2812525 161.495743,31.7578102 160.636364,32.21875 C159.784797,32.6718773 158.964493,33.0703108 158.175426,33.4140625 C157.38636,33.7500017 156.796522,33.9726557 156.405895,34.0820312 C155.882455,34.222657 155.460584,34.3046874 155.14027,34.328125 C154.819956,34.3515626 154.616833,34.359375 154.530895,34.3515625 L154.495739,34.3515625 C153.159794,34.3515625 152.269178,33.8085992 151.823864,32.7226562 C151.784801,32.5976556 151.745739,32.4023451 151.706676,32.1367188 C151.573863,31.3945275 151.441052,30.921876 151.308239,30.71875 C151.214488,30.5703118 151.101208,30.4960938 150.968395,30.4960938 C150.734019,30.4960938 150.210586,30.8203093 149.398082,31.46875 C148.609016,32.0703155 147.417622,32.7812459 145.823864,33.6015625 C144.378544,34.3593788 143.261368,34.7382812 142.472301,34.7382812 Z M174.465554,36.15625 C173.520237,36.15625 172.789775,35.730473 172.274148,34.8789062 C172.086647,34.4414041 171.992898,34.0195333 171.992898,33.6132812 C171.992898,33.3398424 172.03196,33.0703138 172.110085,32.8046875 C172.321024,32.1093715 172.66477,31.4531281 173.141335,30.8359375 C173.610088,30.2109344 174.188207,29.5273475 174.87571,28.7851562 C175.649152,27.9179644 176.446019,27.0703166 177.266335,26.2421875 C178.477279,25.0234314 179.625705,23.7578191 180.711648,22.4453125 C181.1179,21.9296849 181.34446,21.6093756 181.391335,21.484375 C181.43821,21.3593744 181.461648,21.2812502 181.461648,21.25 C181.461648,21.1796871 181.430398,21.1445312 181.367898,21.1445312 C181.227272,21.1445312 180.969462,21.2539052 180.59446,21.4726562 C180.078833,21.7617202 179.496807,22.1484351 178.848366,22.6328125 C178.817116,22.6562501 178.789773,22.6757812 178.766335,22.6914062 C178.68821,22.746094 178.617898,22.7929686 178.555398,22.8320312 C173.360059,26.4414243 169.031978,29.8671713 165.571023,33.109375 C164.227266,34.4062565 163.184308,35.2187484 162.442116,35.546875 C162.043677,35.7265634 161.719461,35.8164062 161.46946,35.8164062 C161.274147,35.8164062 161.086649,35.7734379 160.90696,35.6875 C160.438208,35.4062486 160.156961,35.0820331 160.06321,34.7148438 C159.96946,34.3398419 159.922585,34.0546885 159.922585,33.859375 C159.922585,33.5390609 159.996803,33.226564 160.145241,32.921875 C160.465556,32.3593722 161.098362,31.5273493 162.043679,30.4257812 C162.270243,30.1601549 162.481178,29.9101574 162.676491,29.6757812 L162.793679,29.5351562 C164.489,27.4335832 166.238982,25.4414157 168.043679,23.5585938 C168.996809,22.5273386 169.770239,21.9882815 170.363991,21.9414062 C170.879619,21.996094 171.309302,22.1835921 171.653054,22.5039062 C171.996806,22.8242204 172.168679,23.1679669 172.168679,23.5351562 C172.168679,23.6835945 172.129617,23.8749988 172.051491,24.109375 C171.903053,24.4843769 171.828835,24.726562 171.828835,24.8359375 C171.828835,24.8828127 171.840554,24.90625 171.863991,24.90625 C171.949929,24.90625 172.184302,24.7539078 172.567116,24.4492188 C172.76243,24.3007812 173.016334,24.1093762 173.328835,23.875 C179.086677,19.4921656 182.766327,17.3007812 184.367898,17.3007812 C184.485086,17.3007812 184.59446,17.3124999 184.696023,17.3359375 C185.688215,17.6250014 186.196023,17.9453107 186.21946,18.296875 C186.227273,18.5156261 186.235085,18.6718745 186.242898,18.765625 L186.242898,18.8710938 C186.242898,19.5039094 185.977275,20.1679653 185.446023,20.8632812 C184.110079,22.6211025 182.188223,24.8398304 179.680398,27.5195312 C178.992894,28.2539099 178.28587,29.0273397 177.559304,29.8398438 C175.949921,31.597665 175.145241,32.671873 175.145241,33.0625 C175.145241,33.2031257 175.235084,33.2734375 175.414773,33.2734375 C175.719462,33.2734375 176.47336,32.949222 177.676491,32.3007812 C178.746809,31.6835907 179.793674,31.0312534 180.817116,30.34375 C182.684313,29.1015563 184.184298,28.226565 185.317116,27.71875 C186.324934,27.2656227 187.227269,27.0390625 188.024148,27.0390625 C188.696026,27.0390625 189.278052,27.1953109 189.770241,27.5078125 C190.449932,27.9296896 190.918678,28.6210889 191.176491,29.5820312 C191.192117,29.636719 191.203835,29.6874998 191.211648,29.734375 C191.258523,29.937501 191.297585,30.1249991 191.328835,30.296875 C191.383523,30.6718769 191.4636,30.9550772 191.56907,31.1464844 C191.674539,31.3378916 191.844459,31.4335938 192.078835,31.4335938 C192.656963,31.4335938 193.828826,30.8710994 195.59446,29.7460938 C195.821024,29.5976555 196.125708,29.4257822 196.508523,29.2304688 C197.008525,28.98828 197.438208,28.8671875 197.797585,28.8671875 C198.117899,28.8671875 198.352272,29.0039049 198.50071,29.2773438 C198.563211,29.4101569 198.59446,29.5468743 198.59446,29.6875 C198.59446,30.0468768 198.375712,30.4609352 197.93821,30.9296875 C197.571021,31.3203145 196.707748,31.9374958 195.348366,32.78125 C194.520237,33.2968776 193.856181,33.6523428 193.356179,33.8476562 C192.926489,33.9804694 192.535868,34.046875 192.184304,34.046875 C191.848365,34.046875 191.547587,33.9882818 191.28196,33.8710938 C190.735082,33.6367176 190.278056,33.2460965 189.910866,32.6992188 C189.535865,32.1601536 189.196024,31.5468784 188.891335,30.859375 C188.578834,30.1718716 188.321024,29.8046877 188.117898,29.7578125 C187.914772,29.7109373 187.770242,29.6875 187.684304,29.6875 C187.348365,29.6875 186.899151,29.8124988 186.336648,30.0625 C185.563206,30.3906266 184.313219,31.0703073 182.586648,32.1015625 C178.336626,34.804701 175.629622,36.15625 174.465554,36.15625 Z M168.055398,27.7070312 C168.141336,27.7070312 168.36399,27.5664077 168.723366,27.2851562 L170.246804,26.1367188 C170.254617,26.1367188 170.258523,26.1367188 170.258523,26.1367188 C170.258523,26.1367188 170.258523,26.1328125 170.258523,26.125 C170.602274,25.8984364 170.774148,25.6992196 170.774148,25.5273438 C170.774148,25.4648434 170.746804,25.4101565 170.692116,25.3632812 C170.285864,25.3632812 169.684308,25.7890582 168.887429,26.640625 C168.324926,27.250003 168.043679,27.601562 168.043679,27.6953125 C168.043679,27.703125 168.043679,27.7070312 168.043679,27.7070312 C168.043679,27.7070312 168.047585,27.7070312 168.055398,27.7070312 Z" id="NhiDam" fill="#FFFCE6" fill-rule="nonzero"></path>
    </g>
</svg>